<svg xmlns="http://www.w3.org/2000/svg" xmlns:xlink="http://www.w3.org/1999/xlink" xmlns:lucid="lucid" width="694.32" height="1462.06"><g transform="translate(-82.84051014028665 -172.56345658336983)" lucid:page-tab-id="0_0"><path d="M0 0h860v1765.26H0z" fill="#fff"/><path d="M686.6 192.56c17.67 0 32 17.9 32 40s-14.33 40-32 40h-96c-17.67 0-32-17.9-32-40s14.33-40 32-40z" stroke="#000" stroke-opacity="0" fill="#ff741d"/><use xlink:href="#a" transform="matrix(1,0,0,1,563.6011636499868,197.56345658336983) translate(49.674 42.56)"/><path d="M268.84 404.8a9.06 9.06 0 0 1 7.94-9l144.12-17.93a7.07 7.07 0 0 1 7.94 7v104a8 8 0 0 1-8 8h-144a8 8 0 0 1-8-8z" stroke="#000" stroke-opacity="0" stroke-width="2" fill="#ff8839"/><use xlink:href="#b" transform="matrix(1,0,0,1,273.8405101402869,401.87691316675614) translate(12 52.56)"/><use xlink:href="#c" transform="matrix(1,0,0,1,273.8405101402869,401.87691316675614) translate(30 52.56)"/><use xlink:href="#d" transform="matrix(1,0,0,1,273.8405101402869,401.87691316675614) translate(48 52.56)"/><use xlink:href="#e" transform="matrix(1,0,0,1,273.8405101402869,401.87691316675614) translate(66 52.56)"/><use xlink:href="#f" transform="matrix(1,0,0,1,273.8405101402869,401.87691316675614) translate(84 52.56)"/><use xlink:href="#g" transform="matrix(1,0,0,1,273.8405101402869,401.87691316675614) translate(102 52.56)"/><use xlink:href="#h" transform="matrix(1,0,0,1,273.8405101402869,401.87691316675614) translate(120 52.56)"/><path d="M548.36 822.63a8 8 0 0 1 8-8h164.48a8 8 0 0 1 8 8v104a8 8 0 0 1-8 8H556.36a8 8 0 0 1-8-8z" stroke="#000" stroke-opacity="0" stroke-width="2" fill="#ff8839"/><use xlink:href="#i" transform="matrix(1,0,0,1,553.3618171596871,819.6269131667395) translate(31.5 49.24)"/><use xlink:href="#j" transform="matrix(1,0,0,1,553.3618171596871,819.6269131667395) translate(49.5 49.24)"/><use xlink:href="#d" transform="matrix(1,0,0,1,553.3618171596871,819.6269131667395) translate(67.5 49.24)"/><use xlink:href="#e" transform="matrix(1,0,0,1,553.3618171596871,819.6269131667395) translate(85.5 49.24)"/><use xlink:href="#k" transform="matrix(1,0,0,1,553.3618171596871,819.6269131667395) translate(103.5 49.24)"/><use xlink:href="#l" transform="matrix(1,0,0,1,553.3618171596871,819.6269131667395) translate(121.5 49.24)"/><use xlink:href="#m" transform="matrix(1,0,0,1,553.3618171596871,819.6269131667395) translate(31.5 75.88)"/><use xlink:href="#f" transform="matrix(1,0,0,1,553.3618171596871,819.6269131667395) translate(49.5 75.88)"/><use xlink:href="#n" transform="matrix(1,0,0,1,553.3618171596871,819.6269131667395) translate(67.5 75.88)"/><use xlink:href="#o" transform="matrix(1,0,0,1,553.3618171596871,819.6269131667395) translate(85.5 75.88)"/><use xlink:href="#p" transform="matrix(1,0,0,1,553.3618171596871,819.6269131667395) translate(103.5 75.88)"/><use xlink:href="#q" transform="matrix(1,0,0,1,553.3618171596871,819.6269131667395) translate(121.5 75.88)"/><path d="M638.6 273.06v39.57a12 12 0 0 1-12 12H362.18a12 12 0 0 0-12 12v33.7" stroke="#333" fill="none"/><path d="M639.1 273.08h-1v-.52h1z" stroke="#333" stroke-width=".05" fill="#333"/><path d="M350.18 385.1l-4.63-14.27h9.27z" stroke="#333" fill="#333"/><path d="M429.3 436.88H532" stroke="#333" fill="none"/><path d="M429.3 437.38h-.5v-1h.5z" stroke="#333" stroke-width=".05" fill="#333"/><path d="M546.78 436.88l-14.26 4.63v-9.26z" stroke="#333" fill="#333"/><path d="M548.36 402.55a8.93 8.93 0 0 1 7.95-8.88l164.6-18.17a7.17 7.17 0 0 1 7.94 7.13v104a8 8 0 0 1-8 8H556.36a8 8 0 0 1-8-8z" stroke="#000" stroke-opacity="0" stroke-width="2" fill="#ff8839"/><use xlink:href="#r" transform="matrix(1,0,0,1,553.3618171596871,399.62691316673966) translate(4.950000000000003 52.56)"/><use xlink:href="#s" transform="matrix(1,0,0,1,553.3618171596871,399.62691316673966) translate(13.500000000000002 52.56)"/><use xlink:href="#t" transform="matrix(1,0,0,1,553.3618171596871,399.62691316673966) translate(31.5 52.56)"/><use xlink:href="#u" transform="matrix(1,0,0,1,553.3618171596871,399.62691316673966) translate(58.05 52.56)"/><use xlink:href="#v" transform="matrix(1,0,0,1,553.3618171596871,399.62691316673966) translate(76.05 52.56)"/><use xlink:href="#w" transform="matrix(1,0,0,1,553.3618171596871,399.62691316673966) translate(94.05 52.56)"/><use xlink:href="#f" transform="matrix(1,0,0,1,553.3618171596871,399.62691316673966) translate(112.05 52.56)"/><use xlink:href="#x" transform="matrix(1,0,0,1,553.3618171596871,399.62691316673966) translate(130.05 52.56)"/><use xlink:href="#y" transform="matrix(1,0,0,1,553.3618171596871,399.62691316673966) translate(148.05 52.56)"/><path d="M638.6 495.08V559.07" stroke="#333" fill="none"/><path d="M639.1 495.1h-1v-.52h1z" stroke="#333" stroke-width=".05" fill="#333"/><path d="M638.6 573.84l-4.63-14.27h9.27z" stroke="#333" fill="#333"/><path d="M632.38 579.66a9.88 9.88 0 0 1 12.44 0l87.8 71.13a6.48 6.48 0 0 1 0 10.06L644.82 732a9.88 9.88 0 0 1-12.44 0l-87.8-71.14a6.48 6.48 0 0 1 0-10.07z" stroke="#fe5900" stroke-width="4" fill="#fff"/><use xlink:href="#z" transform="matrix(1,0,0,1,543.3618171596871,579.6269131667397) translate(23.5 70.74)"/><use xlink:href="#A" transform="matrix(1,0,0,1,543.3618171596871,579.6269131667397) translate(41.5 70.74)"/><use xlink:href="#B" transform="matrix(1,0,0,1,543.3618171596871,579.6269131667397) translate(59.5 70.74)"/><use xlink:href="#C" transform="matrix(1,0,0,1,543.3618171596871,579.6269131667397) translate(77.5 70.74)"/><use xlink:href="#D" transform="matrix(1,0,0,1,543.3618171596871,579.6269131667397) translate(95.5 70.74)"/><use xlink:href="#E" transform="matrix(1,0,0,1,543.3618171596871,579.6269131667397) translate(113.5 70.74)"/><use xlink:href="#F" transform="matrix(1,0,0,1,543.3618171596871,579.6269131667397) translate(131.5 70.74)"/><use xlink:href="#G" transform="matrix(1,0,0,1,543.3618171596871,579.6269131667397) translate(149.5 70.74)"/><use xlink:href="#H" transform="matrix(1,0,0,1,543.3618171596871,579.6269131667397) translate(32.5 97.38)"/><use xlink:href="#I" transform="matrix(1,0,0,1,543.3618171596871,579.6269131667397) translate(50.5 97.38)"/><use xlink:href="#J" transform="matrix(1,0,0,1,543.3618171596871,579.6269131667397) translate(68.5 97.38)"/><use xlink:href="#K" transform="matrix(1,0,0,1,543.3618171596871,579.6269131667397) translate(86.5 97.38)"/><use xlink:href="#L" transform="matrix(1,0,0,1,543.3618171596871,579.6269131667397) translate(104.5 97.38)"/><use xlink:href="#M" transform="matrix(1,0,0,1,543.3618171596871,579.6269131667397) translate(122.5 97.38)"/><use xlink:href="#N" transform="matrix(1,0,0,1,543.3618171596871,579.6269131667397) translate(140.5 97.38)"/><path d="M639.1 798.3h-1v-9.54h1zm0-36.18h-1V736.7h1z" stroke="#333" stroke-width=".05" fill="#333"/><path d="M638.6 736.2l.5-.04v.55h-1v-.54z" fill="#333"/><path d="M638.6 736.17l.53-.03v.6h-1.05v-.6zm-.47.5h.95v-.48l-.48.02-.47-.03z" stroke="#333" stroke-width=".05" fill="#333"/><path d="M638.6 813.06l-4.63-14.27h9.27z" fill="#333"/><path d="M638.6 814.67l-5.32-16.38h10.64zm-3.95-15.38l3.95 12.14 3.95-12.15z" stroke="#333" stroke-width=".05" fill="#333"/><use xlink:href="#O" transform="matrix(1,0,0,1,620.6011636553575,762.1159511540983) translate(0.004999999999999005 20.88)"/><use xlink:href="#P" transform="matrix(1,0,0,1,620.6011636553575,762.1159511540983) translate(18.005 20.88)"/><path d="M539.67 655.33v1H392v-1zm-190.2-12.82h-1l-.13-129.3h1z" stroke="#333" stroke-width=".05" fill="#333"/><path d="M540.17 655.83l.04.5h-.54v-1h.55z" fill="#333"/><path d="M540.2 655.83l.04.52h-.6v-1.05h.6zm-.52-.48v.95h.5l-.04-.47.05-.48z" stroke="#333" stroke-width=".05" fill="#333"/><path d="M353.48 512.7h-9.27l4.64-14.25z" fill="#333"/><path d="M354.16 513.2h-10.64l5.32-16.37zm-9.27-1h7.9l-3.96-12.14z" stroke="#333" stroke-width=".05" fill="#333"/><g><use xlink:href="#Q" transform="matrix(1,0,0,1,338.0057279661779,642.5060207580976) translate(0.004999999999999005 20.88)"/><use xlink:href="#R" transform="matrix(1,0,0,1,338.0057279661779,642.5060207580976) translate(18.005 20.88)"/><use xlink:href="#S" transform="matrix(1,0,0,1,338.0057279661779,642.5060207580976) translate(36.004999999999995 20.88)"/></g><path d="M548.36 1002.63a8 8 0 0 1 8-8h164.48a8 8 0 0 1 8 8v104a8 8 0 0 1-8 8H556.36a8 8 0 0 1-8-8z" stroke="#000" stroke-opacity="0" stroke-width="2" fill="#ff8839"/><g><use xlink:href="#T" transform="matrix(1,0,0,1,553.3618171596871,999.6269131667398) translate(4.5 49.24)"/><use xlink:href="#U" transform="matrix(1,0,0,1,553.3618171596871,999.6269131667398) translate(22.5 49.24)"/><use xlink:href="#V" transform="matrix(1,0,0,1,553.3618171596871,999.6269131667398) translate(40.5 49.24)"/><use xlink:href="#W" transform="matrix(1,0,0,1,553.3618171596871,999.6269131667398) translate(58.5 49.24)"/><use xlink:href="#X" transform="matrix(1,0,0,1,553.3618171596871,999.6269131667398) translate(76.5 49.24)"/><use xlink:href="#W" transform="matrix(1,0,0,1,553.3618171596871,999.6269131667398) translate(94.5 49.24)"/><use xlink:href="#Y" transform="matrix(1,0,0,1,553.3618171596871,999.6269131667398) translate(112.5 49.24)"/><use xlink:href="#Z" transform="matrix(1,0,0,1,553.3618171596871,999.6269131667398) translate(130.5 49.24)"/><use xlink:href="#aa" transform="matrix(1,0,0,1,553.3618171596871,999.6269131667398) translate(148.5 49.24)"/><use xlink:href="#f" transform="matrix(1,0,0,1,553.3618171596871,999.6269131667398) translate(4.5 75.88)"/><use xlink:href="#ab" transform="matrix(1,0,0,1,553.3618171596871,999.6269131667398) translate(22.5 75.88)"/><use xlink:href="#ac" transform="matrix(1,0,0,1,553.3618171596871,999.6269131667398) translate(40.5 75.88)"/><use xlink:href="#ad" transform="matrix(1,0,0,1,553.3618171596871,999.6269131667398) translate(58.5 75.88)"/><use xlink:href="#ae" transform="matrix(1,0,0,1,553.3618171596871,999.6269131667398) translate(76.5 75.88)"/><use xlink:href="#o" transform="matrix(1,0,0,1,553.3618171596871,999.6269131667398) translate(94.5 75.88)"/><use xlink:href="#af" transform="matrix(1,0,0,1,553.3618171596871,999.6269131667398) translate(112.5 75.88)"/><use xlink:href="#ag" transform="matrix(1,0,0,1,553.3618171596871,999.6269131667398) translate(130.5 75.88)"/><use xlink:href="#y" transform="matrix(1,0,0,1,553.3618171596871,999.6269131667398) translate(148.5 75.88)"/></g><path d="M638.6 935.08v43.2" stroke="#333" fill="none"/><path d="M639.1 935.1h-1v-.52h1z" stroke="#333" stroke-width=".05" fill="#333"/><path d="M638.6 993.06l-4.63-14.27h9.27z" stroke="#333" fill="#333"/><path d="M548.36 1182.63a8 8 0 0 1 8-8h164.48a8 8 0 0 1 8 8v104a8 8 0 0 1-8 8H556.36a8 8 0 0 1-8-8z" stroke="#000" stroke-opacity="0" stroke-width="2" fill="#ff8839"/><g><use xlink:href="#ah" transform="matrix(1,0,0,1,553.3618171596871,1179.6269131667395) translate(4.5 49.24)"/><use xlink:href="#ai" transform="matrix(1,0,0,1,553.3618171596871,1179.6269131667395) translate(22.5 49.24)"/><use xlink:href="#aj" transform="matrix(1,0,0,1,553.3618171596871,1179.6269131667395) translate(40.5 49.24)"/><use xlink:href="#ak" transform="matrix(1,0,0,1,553.3618171596871,1179.6269131667395) translate(58.5 49.24)"/><use xlink:href="#al" transform="matrix(1,0,0,1,553.3618171596871,1179.6269131667395) translate(76.5 49.24)"/><use xlink:href="#am" transform="matrix(1,0,0,1,553.3618171596871,1179.6269131667395) translate(94.5 49.24)"/><use xlink:href="#an" transform="matrix(1,0,0,1,553.3618171596871,1179.6269131667395) translate(112.5 49.24)"/><use xlink:href="#f" transform="matrix(1,0,0,1,553.3618171596871,1179.6269131667395) translate(130.5 49.24)"/><use xlink:href="#ao" transform="matrix(1,0,0,1,553.3618171596871,1179.6269131667395) translate(148.5 49.24)"/><use xlink:href="#ap" transform="matrix(1,0,0,1,553.3618171596871,1179.6269131667395) translate(4.950000000000003 75.88)"/><use xlink:href="#aq" transform="matrix(1,0,0,1,553.3618171596871,1179.6269131667395) translate(22.950000000000003 75.88)"/><use xlink:href="#ar" transform="matrix(1,0,0,1,553.3618171596871,1179.6269131667395) translate(40.95 75.88)"/><use xlink:href="#as" transform="matrix(1,0,0,1,553.3618171596871,1179.6269131667395) translate(76.05 75.88)"/><use xlink:href="#at" transform="matrix(1,0,0,1,553.3618171596871,1179.6269131667395) translate(94.05 75.88)"/><use xlink:href="#f" transform="matrix(1,0,0,1,553.3618171596871,1179.6269131667395) translate(112.05 75.88)"/><use xlink:href="#au" transform="matrix(1,0,0,1,553.3618171596871,1179.6269131667395) translate(130.05 75.88)"/><use xlink:href="#av" transform="matrix(1,0,0,1,553.3618171596871,1179.6269131667395) translate(148.05 75.88)"/></g><path d="M638.6 1115.08v43.2" stroke="#333" fill="none"/><path d="M639.1 1115.1h-1v-.52h1z" stroke="#333" stroke-width=".05" fill="#333"/><path d="M638.6 1173.06l-4.63-14.27h9.27z" stroke="#333" fill="#333"/><path d="M694.17 1354.63c20.45 0 37.04 17.9 37.04 40s-16.58 40-37.03 40H583.04c-20.46 0-37.05-17.9-37.05-40s16.58-40 37.04-40z" stroke="#000" stroke-opacity="0" fill="#ff741d"/><g><use xlink:href="#aw" transform="matrix(1,0,0,1,550.9930654407207,1359.6269131667395) translate(52 42.56)"/><use xlink:href="#ax" transform="matrix(1,0,0,1,550.9930654407207,1359.6269131667395) translate(70 42.56)"/><use xlink:href="#d" transform="matrix(1,0,0,1,550.9930654407207,1359.6269131667395) translate(88 42.56)"/><use xlink:href="#ay" transform="matrix(1,0,0,1,550.9930654407207,1359.6269131667395) translate(106 42.56)"/></g><path d="M550.73 1522.55a8.93 8.93 0 0 1 7.95-8.88l164.58-18.17a7.17 7.17 0 0 1 7.95 7.13v104a8 8 0 0 1-8 8H558.74a8 8 0 0 1-8-8z" stroke="#000" stroke-opacity="0" stroke-width="2" fill="#ff8839"/><g><use xlink:href="#az" transform="matrix(1,0,0,1,555.7305688894393,1519.6269131667395) translate(40.5 52.56)"/><use xlink:href="#e" transform="matrix(1,0,0,1,555.7305688894393,1519.6269131667395) translate(58.5 52.56)"/><use xlink:href="#f" transform="matrix(1,0,0,1,555.7305688894393,1519.6269131667395) translate(76.5 52.56)"/><use xlink:href="#aA" transform="matrix(1,0,0,1,555.7305688894393,1519.6269131667395) translate(94.5 52.56)"/><use xlink:href="#aB" transform="matrix(1,0,0,1,555.7305688894393,1519.6269131667395) translate(112.5 52.56)"/></g><path d="M638.6 1435.13v53.38" stroke="#333" fill="none"/><path d="M639.1 1435.14h-1v-.5h1z" stroke="#333" stroke-width=".05" fill="#333"/><path d="M638.6 1503.28l-4.63-14.27h9.27z" stroke="#333" fill="#333"/><path d="M638.6 1295.08v43.16" stroke="#333" fill="none"/><path d="M639.1 1295.1h-1v-.52h1z" stroke="#333" stroke-width=".05" fill="#333"/><path d="M638.6 1353l-4.63-14.26h9.27z" stroke="#333" fill="#333"/><path d="M731.66 1554.82h27.5a12 12 0 0 0 12-12v-137.6a12 12 0 0 0-12-12h-11.62" stroke="#333" fill="none"/><path d="M731.67 1555.32h-.5v-1h.5z" stroke="#333" stroke-width=".05" fill="#333"/><path d="M732.78 1393.22l14.26-4.64v9.27z" stroke="#333" fill="#333"/><path d="M268.84 1362.55a8.93 8.93 0 0 1 7.95-8.88l164.57-18.17a7.17 7.17 0 0 1 7.95 7.13v104a8 8 0 0 1-8 8H276.84a8 8 0 0 1-8-8z" stroke="#000" stroke-opacity="0" stroke-width="2" fill="#ff8839"/><g><use xlink:href="#aC" transform="matrix(1,0,0,1,273.8405101402869,1359.6269131667395) translate(33.174 52.56)"/><use xlink:href="#ad" transform="matrix(1,0,0,1,273.8405101402869,1359.6269131667395) translate(83.826 52.56)"/><use xlink:href="#aD" transform="matrix(1,0,0,1,273.8405101402869,1359.6269131667395) translate(101.826 52.56)"/><use xlink:href="#q" transform="matrix(1,0,0,1,273.8405101402869,1359.6269131667395) translate(119.826 52.56)"/></g><path d="M545.5 1394.63h-79.85" stroke="#333" fill="none"/><path d="M546 1394.63v.5h-.52v-1h.54z" stroke="#333" stroke-width=".05" fill="#333"/><path d="M450.9 1394.63l14.25-4.64v9.26z" stroke="#333" fill="#333"/><path d="M542.22 233.06l-443.2.15-1.73.43-1.68.7-1.54.93-1.37 1.17-1.16 1.37-.94 1.54-.7 1.67-.42 1.76-.14 1.82.15 1140.06.4 1.73.7 1.67.94 1.54 1.17 1.37 1.38 1.17 1.54.94 1.67.7 1.74.42 1.82.14h167.52v1H100.82l-1.94-.15-1.9-.46-1.82-.74-1.67-1.03-1.5-1.27-1.27-1.5-1.03-1.67-.75-1.82-.46-1.92-.16-1140.22.15-1.93.45-1.9.75-1.8 1.03-1.68 1.27-1.5 1.5-1.27 1.66-1.03 1.82-.75 1.92-.46 443.32-.14z" stroke="#333" stroke-width=".05" fill="#333"/><path d="M268.88 1395.32h-.52v-1h.52z" fill="#333"/><path d="M268.9 1395.34h-.56v-1.05h.56zm-.5-1v.95h.45v-.96z" stroke="#333" stroke-width=".05" fill="#333"/><path d="M556.98 232.56l-14.26 4.64v-9.27z" fill="#333"/><path d="M558.6 232.56l-16.38 5.33v-10.66zm-15.38 3.95l12.15-3.94-12.15-3.94z" stroke="#333" stroke-width=".05" fill="#333"/><defs><path fill="#fff" d="M100 0v-733h93v307h342v-307h92V0h-92v-346H193V0h-93" id="aE"/><path fill="#fff" d="M303 13C170 13 51-91 51-271c0-181 119-286 252-286s252 105 252 286C555-91 436 13 303 13zm0-76c94 0 158-83 158-208s-64-210-158-210-157 85-157 210S209-63 303-63" id="aF"/><path fill="#fff" d="M92 0v-543h75l8 79h3c47-52 104-93 169-93 83 0 128 40 150 104 56-61 113-104 179-104 112 0 165 74 165 213V0h-91v-332c0-102-32-145-101-145-42 0-86 27-137 83V0h-91v-332c0-102-32-145-101-145-41 0-87 27-137 83V0H92" id="aG"/><path fill="#fff" d="M311 13C167 13 51-92 51-271c0-176 119-286 245-286 154-3 234 132 212 307H142c6 116 77 190 180 190 53 0 96-16 136-43l33 60c-48 31-106 56-180 56zM141-315h291c0-110-50-169-135-169-77 0-145 62-156 169" id="aH"/><g id="a"><use transform="matrix(0.018,0,0,0.018,0,0)" xlink:href="#aE"/><use transform="matrix(0.018,0,0,0.018,13.104,0)" xlink:href="#aF"/><use transform="matrix(0.018,0,0,0.018,24.012000000000004,0)" xlink:href="#aG"/><use transform="matrix(0.018,0,0,0.018,40.68,0)" xlink:href="#aH"/></g><path fill="#fff" d="M230-383c147-87 157-197 157-286H67v-68h395v-99h75v99h400v68H667v220c0 92-67 74-173 78-3-19-12-46-21-65 50 1 93 1 106 1 13-1 16-4 16-15v-219H457c0 108-14 238-173 336-11-16-37-39-54-50zm489-204l57-34c65 57 142 138 178 193l-62 39c-33-55-109-139-173-198zm-502-30l70 20c-42 75-114 152-187 199-13-13-36-33-51-44 69-41 137-112 168-175zm137 366l-6 6c39 52 92 97 158 134 71-38 132-84 176-140H354zm390-65l49 33c-50 87-124 155-213 208C686-31 814-2 958 10c-16 16-35 48-43 68C755 61 616 24 503-35 379 23 234 58 86 79c-5-18-22-51-36-65C187-3 320-31 432-77c-53-37-99-80-136-129-51 35-108 68-174 96-10-18-32-42-47-54 153-59 261-146 317-224l80 14c-16 21-33 41-52 61h310" id="aI"/><use transform="matrix(0.018,0,0,0.018,0,0)" xlink:href="#aI" id="b"/><path fill="#fff" d="M690-700H522c-21 34-47 67-76 98h191c18-28 38-65 53-98zm154 264v-105H735v94c0 16 2 18 23 18h66c14 0 18-1 20-7zM455-541v150c69-29 91-74 98-150h-98zM348-347l-109 36v301c-3 93-54 83-158 86-3-17-12-48-22-68 43 1 82 1 94 0 12 0 17-3 17-18v-279L51-250l-19-72c38-10 86-25 138-41v-205H45v-68h125v-200h69v200h107v38c87-71 143-163 171-239l70 11c-9 22-19 44-30 66h167l11-4 47 31c-18 43-46 91-72 131h199v325h-65v-101h-93c-59 0-73-13-73-69v-94h-69c-8 95-36 155-121 192-6-13-21-32-33-41v115h-63v-276c-6 6-13 11-19 16-8-11-21-23-33-33H239v184c33-10 66-21 99-32zm599 172H696C743-77 830-13 962 12c-17 14-35 43-45 61C782 40 693-29 641-139 600-33 516 37 338 78c-6-16-23-43-37-57 172-35 247-97 281-196H336v-63h263c5-27 8-57 11-89h68c-3 32-6 61-11 89h280v63" id="aJ"/><use transform="matrix(0.018,0,0,0.018,0,0)" xlink:href="#aJ" id="c"/><path fill="#fff" d="M839-57v-545h72V73h-72V14H164v62H92v-678h72v545h675zM672-398v-130H529v130h143zm0 191v-131H529v131h143zM322-338v131h142v-131H322zm0-190v130h142v-130H322zM61-771h878v69H533v111h204v447H259v-447h200v-111H61v-69" id="aK"/><use transform="matrix(0.018,0,0,0.018,0,0)" xlink:href="#aK" id="d"/><path fill="#fff" d="M235-831l69 19c-22 66-48 132-78 195V76h-71v-560c-30 50-61 95-94 134-7-18-27-57-39-75 86-100 165-252 213-406zm171 245v113h183v-113H406zm263-130H475c-19 25-39 50-62 75h201c20-21 39-49 55-75zm179 243v-113H657v113h191zm48 84l52 44c-48 43-113 89-164 120 46 87 106 158 180 199-16 14-39 41-49 59-134-84-221-254-268-453h-24c-19 16-40 31-63 45C726-236 728-15 647 46c-45 39-98 32-173 28-1-17-6-45-18-63 63 2 103 15 142-13 28-20 42-72 32-134C543-63 415 11 309 51c-10-18-27-41-42-55 118-36 266-118 346-196-7-20-17-40-30-60-71 55-175 110-259 141-8-15-24-38-38-51 87-26 199-79 267-132-13-15-27-29-44-43-61 34-128 64-188 86-10-14-31-39-44-52 85-25 179-64 251-109H338v-149c-9 8-19 16-29 24-13-15-37-34-55-42 103-73 177-171 218-248l71 13c-9 16-19 33-30 50h196l13-4 46 31c-20 35-46 72-72 104h222v221H711c13 50 29 98 48 142 48-32 102-77 137-111" id="aL"/><use transform="matrix(0.018,0,0,0.018,0,0)" xlink:href="#aL" id="e"/><path fill="#fff" d="M878-441c-104 35-177 66-289 117 1 57 2 141 3 189h-77c3-38 4-102 4-154-92 50-156 101-156 166 0 78 77 89 179 89 77 0 183-9 270-24l-2 81C627 35 282 94 283-112c0-117 118-191 233-251-10-41-46-61-89-61-128 6-195 93-261 177l-68-51c126-122 191-224 228-302-66 0-130-1-204-6v-75c82 8 153 12 232 9 14-44 23-89 25-123l82 7c-7 28-16 69-30 114 101-5 209-14 303-30l-1 74c-98 15-220 24-328 28-22 51-53 106-89 152 87-54 243-58 268 53 102-48 174-74 262-119" id="aM"/><use transform="matrix(0.018,0,0,0.018,0,0)" xlink:href="#aM" id="f"/><path fill="#fff" d="M838-681v-65H627v-52h277v169H709c6 39-20 74 39 74h119c24 0 29-6 32-53 13 9 37 17 55 21-7 67-26 85-79 85H741c-74 0-95-15-95-75v-104h192zm-322 0v-65H302v-52h277v169H382c6 38-21 74 37 74h108c24 0 29-6 32-50 13 10 37 18 55 21-7 65-26 82-77 82H413c-74 0-93-15-93-75v-104h196zm16 321v95h164v-95H532zm416 95v58H283v-58h180v-95H315v-57h148v-72h69v72h164v-72h71v72h150v57H767v95h181zM933-74l-72 32c-42-37-114-84-183-119l53-33c73 35 155 83 202 120zM496-196l66 23c-51 48-131 97-197 129-12-13-39-37-55-47 68-27 142-65 186-105zM264-647l-62 42c-26-50-90-121-148-170l57-38c59 47 125 116 153 166zm-23 202v321C288-49 377-15 494-10c113 5 346 2 468-6-9 16-21 49-24 70-113 5-329 7-442 3-132-5-223-41-285-120-42 44-87 86-135 130L37-2c42-31 91-73 135-115v-258H49v-70h192" id="aN"/><use transform="matrix(0.018,0,0,0.018,0,0)" xlink:href="#aN" id="g"/><path fill="#fff" d="M413-330l-143 36v280c0 44-11 65-39 77-27 11-71 13-148 13-2-19-12-50-22-68 53 2 102 1 117 0 14-1 21-5 21-21v-263L56-240l-19-73c46-9 101-22 162-36v-216H50v-69h149v-202h71v202h136v69H270v199l136-32zm433-380H529v260h317v-260zm73 331H726C766-202 844-52 974 14c-17 14-40 44-52 64C778-4 696-171 653-379H528c-6 151-35 333-153 455-12-14-41-41-57-50 126-130 138-319 138-467v-339h463v401" id="aO"/><use transform="matrix(0.018,0,0,0.018,0,0)" xlink:href="#aO" id="h"/><path fill="#fff" d="M230-776h318c0 177 23 554 415 787-17 12-47 44-60 62C657-76 551-295 506-484 432-225 306-43 107 74 93 59 60 28 40 15c221-115 344-316 405-596l44 7c-7-46-11-90-13-128H230v-74" id="aP"/><use transform="matrix(0.018,0,0,0.018,0,0)" xlink:href="#aP" id="i"/><path fill="#fff" d="M383-821h80c0 56-1 109-3 159h420c-1 230 4 421-37 596C826 6 791 50 703 48c-57 0-123-4-199-11v-74c75 8 135 12 181 12 61-5 69-30 85-93 34-132 27-278 30-474H456C430-249 354-96 149 67L96 8c119-94 184-168 234-326 23-74 39-165 46-274H100v-70h279c3-65 4-118 4-159" id="aQ"/><use transform="matrix(0.018,0,0,0.018,0,0)" xlink:href="#aQ" id="j"/><path fill="#fff" d="M304-499c-97 10-133 13-214 25l-8-87c91 3 136-3 239-11 14-71 25-148 25-215l93 10c-15 66-19 112-37 198 156-14 272-22 272 162 0 118-20 273-58 357C570 42 460 29 355 8l-13-84c90 19 166 53 208-29 34-66 46-195 46-303-3-137-96-105-210-99-36 142-103 364-208 532L96-8c101-135 175-359 208-491zm402-141l74-32c62 80 147 262 181 354l-78 37c-29-102-107-276-177-359" id="aR"/><use transform="matrix(0.018,0,0,0.018,0,0)" xlink:href="#aR" id="k"/><path fill="#fff" d="M316-705l21-76c85 27 295 68 383 76l-19 78c-94-13-309-57-385-78zm275 332c-153 0-279 66-336 181l-75-18c20-90 44-298 50-402l85 11c-13 68-30 212-39 276 95-83 202-119 320-119 152 0 253 91 253 207C849-59 692 61 324 30l-24-82c312 38 465-52 465-187 0-79-73-134-174-134" id="aS"/><use transform="matrix(0.018,0,0,0.018,0,0)" xlink:href="#aS" id="l"/><path fill="#fff" d="M862-476v-96H596v96h266zm0 151v-97H596v97h266zm0 154v-98H596v98h266zM530-631h138c6-30 13-64 19-95H499v-64h448v64H763c-8 32-18 66-27 95h193v519H530v-519zm-39-39H62v-63h181v-96h72v96h176v63zM388-526l-60-14c13-36 31-93 39-130l67 14c-16 46-31 96-46 130zM134-653l61-13c18 41 35 95 38 127l-63 16c-4-35-19-89-36-130zm14 192c0 194 10 353-68 510C69 35 40 11 27 3c77-160 49-324 55-526h415v62H148zm247 152l58 24c-60 63-155 119-242 154-12-14-29-34-44-45 82-29 177-80 228-133zm-24-135l56 23c-54 54-144 99-222 127-11-14-28-32-43-43 73-24 161-64 209-107zm56 271l63 23C427-55 315 18 185 62c-9-16-26-38-42-51C263-25 373-90 427-173zm194 77l63 37C634-7 550 48 477 78c-10-13-33-35-50-48C501 1 581-52 621-96zm138 41l56-37C868-55 939-1 973 36l-57 41C882 40 814-16 759-55" id="aT"/><use transform="matrix(0.018,0,0,0.018,0,0)" xlink:href="#aT" id="m"/><path fill="#fff" d="M661-678c-4 376-81 591-304 745l-55-51C437-84 510-171 554-353c20-84 31-192 34-325H367v-69h570c-2 254 10 487-35 683C886 6 853 51 767 48c-43 0-95-4-156-11v-72c65 8 113 12 142 12 61-5 66-27 81-91 34-150 24-346 26-564H661zM200-208c2 59 4 45 67 50 45 0 71-8 79-26s14-79 17-183l69 7c-5 97-3 164-32 229-27 35-70 41-137 38-122-6-138 5-138-111v-258l-95 20-8-68 103-22v-261h75v245l262-55 8 68-270 57v270" id="aU"/><use transform="matrix(0.018,0,0,0.018,0,0)" xlink:href="#aU" id="n"/><path fill="#fff" d="M225-227c-29-175 13-400 28-562l88 3c-21 73-40 206-46 275 39-102 143-225 268-225 132 0 227 132 227 340C790-121 617 0 371 45l-47-72c215-33 383-119 383-368 0-156-52-268-157-268-123 0-237 179-249 309-5 38-5 72 2 121" id="aV"/><use transform="matrix(0.018,0,0,0.018,0,0)" xlink:href="#aV" id="o"/><path fill="#fff" d="M394-572v-133H199v133h195zM199-299v151c61-8 128-18 195-28v-123H199zm195-68v-139H199v139h195zm142-338h-70V74h-72v-181C268-86 140-67 45-51l-13-75c28-3 61-7 97-12v-567H51v-69h485v69zm332 5c22-7 41 8 62 11-26 214-82 380-162 507C823-102 891-38 974 4c-17 14-41 42-53 61-79-45-145-106-199-181C663-41 594 18 518 62c-11-19-33-46-49-60 79-41 150-103 210-185-69-118-116-263-149-427l71-13c26 138 66 264 123 370 58-102 101-227 124-374H511v-73h357" id="aW"/><use transform="matrix(0.018,0,0,0.018,0,0)" xlink:href="#aW" id="p"/><path fill="#fff" d="M368-110c-5 72 127 88 210 71-9-78-56-132-131-132-45 0-79 27-79 61zM241-735c111 6 360 0 462-17l46 58c-91 57-203 166-313 256 45-15 90-21 134-21 165 0 284 100 284 234C854-65 721 39 512 39c-135 0-218-60-218-142 0-68 61-130 153-130 124 0 191 83 204 175 78-30 123-87 123-168 0-97-98-168-223-168-163 0-253 69-379 197l-58-59c184-153 327-270 494-416-91 5-285 10-365 20" id="aX"/><use transform="matrix(0.018,0,0,0.018,0,0)" xlink:href="#aX" id="q"/><path fill="#fff" d="M110-483c-9-94-21-184-20-288h96c1 104-11 194-20 288h-56zm197 0c-9-94-21-185-21-288h97c1 104-12 194-21 288h-55" id="aY"/><use transform="matrix(0.018,0,0,0.018,0,0)" xlink:href="#aY" id="r"/><use transform="matrix(0.018,0,0,0.018,0,0)" xlink:href="#aI" id="s"/><g id="t"><use transform="matrix(0.018,0,0,0.018,0,0)" xlink:href="#aJ"/><use transform="matrix(0.018,0,0,0.018,18,0)" xlink:href="#aY"/></g><path fill="#fff" d="M952-686l-54 24c-22-43-53-97-81-134l53-23c26 37 63 96 82 133zm-120 30l-54 24c-20-41-53-98-80-136l54-22c25 36 59 93 80 134zM252-401l70 34c-42 86-136 213-192 275l-69-47c66-62 152-181 191-262zm630-118c-114-4-230-1-346-2v484c11 109-140 77-228 73l-8-80c44 8 90 12 116 12 27 0 39-12 39-38v-451c-120 1-247-3-363 3v-84c112 10 243 3 363 5-1-58 4-126-7-174h94c-9 48-5 117-6 174 116-2 237 5 346-5v83zM672-364l68-36c53 64 133 189 173 261l-74 41c-39-78-114-203-167-266" id="aZ"/><use transform="matrix(0.018,0,0,0.018,0,0)" xlink:href="#aZ" id="u"/><path fill="#fff" d="M807-681l65 40c-8 14-17 38-23 54-25 88-76 199-146 297 38 24 72 47 97 65l-55 72c-24-19-57-43-95-69C560-119 434-21 258 44l-72-62c174-53 304-149 395-249-79-51-163-101-219-132l51-59c58 30 142 78 220 125 61-85 110-188 129-267H422c-64 89-153 187-265 263l-67-52c172-106 276-256 321-347 10-18 25-54 32-80l90 29c-27 44-41 77-65 116h273c27 0 49-3 66-10" id="ba"/><use transform="matrix(0.018,0,0,0.018,0,0)" xlink:href="#ba" id="v"/><path fill="#fff" d="M227-733c71 47 199 151 255 207l-63 63c-50-52-175-159-249-209zM141-63c175-26 305-87 400-146 154-97 276-245 334-368l48 85C783-252 545-47 194 19" id="bb"/><use transform="matrix(0.018,0,0,0.018,0,0)" xlink:href="#bb" id="w"/><path fill="#fff" d="M354-397l10 68c-39 12-78 24-116 35v280c-3 91-56 81-160 85-3-19-13-49-22-67 42 1 81 0 92 0 14-1 19-5 19-18v-259L63-239l-21-72c38-9 84-22 135-36v-219H54v-70h123v-200h71v200h110v70H248v200c35-10 71-20 106-31zm345 61h153v-153H699v153zm-222 0h151v-153H477v153zm151-371H477v149h151v-149zm224 149v-149H699v149h153zM405-776h521v562h-74v-53H699V76h-71v-343H477v56h-72v-565" id="bc"/><use transform="matrix(0.018,0,0,0.018,0,0)" xlink:href="#bc" id="x"/><path fill="#fff" d="M480-234c58 0 96-47 87-141-35-101-190-70-188 43 0 62 46 98 101 98zm63-428c0-52-3-88-8-127h91c-4 45-6 72-6 126 117 0 257 1 305 1l-1 75c-54-3-163-5-304-5 0 56 1 117 2 162 21 34 32 78 32 127 0 134-65 283-295 352l-69-67c130-30 222-84 263-172-106 64-250-1-249-141 0-120 119-204 241-162 0-29 0-64-1-98-150 1-318 8-442 17l-2-78c110-2 296-8 443-10" id="bd"/><use transform="matrix(0.018,0,0,0.018,0,0)" xlink:href="#bd" id="y"/><path fill="#333" d="M230-776h318c0 177 23 554 415 787-17 12-47 44-60 62C657-76 551-295 506-484 432-225 306-43 107 74 93 59 60 28 40 15c221-115 344-316 405-596l44 7c-7-46-11-90-13-128H230v-74" id="be"/><use transform="matrix(0.018,0,0,0.018,0,0)" xlink:href="#be" id="z"/><path fill="#333" d="M383-821h80c0 56-1 109-3 159h420c-1 230 4 421-37 596C826 6 791 50 703 48c-57 0-123-4-199-11v-74c75 8 135 12 181 12 61-5 69-30 85-93 34-132 27-278 30-474H456C430-249 354-96 149 67L96 8c119-94 184-168 234-326 23-74 39-165 46-274H100v-70h279c3-65 4-118 4-159" id="bf"/><use transform="matrix(0.018,0,0,0.018,0,0)" xlink:href="#bf" id="A"/><path fill="#333" d="M839-57v-545h72V73h-72V14H164v62H92v-678h72v545h675zM672-398v-130H529v130h143zm0 191v-131H529v131h143zM322-338v131h142v-131H322zm0-190v130h142v-130H322zM61-771h878v69H533v111h204v447H259v-447h200v-111H61v-69" id="bg"/><use transform="matrix(0.018,0,0,0.018,0,0)" xlink:href="#bg" id="B"/><path fill="#333" d="M235-831l69 19c-22 66-48 132-78 195V76h-71v-560c-30 50-61 95-94 134-7-18-27-57-39-75 86-100 165-252 213-406zm171 245v113h183v-113H406zm263-130H475c-19 25-39 50-62 75h201c20-21 39-49 55-75zm179 243v-113H657v113h191zm48 84l52 44c-48 43-113 89-164 120 46 87 106 158 180 199-16 14-39 41-49 59-134-84-221-254-268-453h-24c-19 16-40 31-63 45C726-236 728-15 647 46c-45 39-98 32-173 28-1-17-6-45-18-63 63 2 103 15 142-13 28-20 42-72 32-134C543-63 415 11 309 51c-10-18-27-41-42-55 118-36 266-118 346-196-7-20-17-40-30-60-71 55-175 110-259 141-8-15-24-38-38-51 87-26 199-79 267-132-13-15-27-29-44-43-61 34-128 64-188 86-10-14-31-39-44-52 85-25 179-64 251-109H338v-149c-9 8-19 16-29 24-13-15-37-34-55-42 103-73 177-171 218-248l71 13c-9 16-19 33-30 50h196l13-4 46 31c-20 35-46 72-72 104h222v221H711c13 50 29 98 48 142 48-32 102-77 137-111" id="bh"/><use transform="matrix(0.018,0,0,0.018,0,0)" xlink:href="#bh" id="C"/><path fill="#333" d="M974-710l-54 24c-22-43-55-100-83-138l53-22c26 36 65 99 84 136zm-112 41l-55 24c-20-40-54-101-81-139l53-22c25 35 62 97 83 137zM291-495c-97 10-133 12-214 25l-8-87c91 3 136-3 238-11 14-71 26-148 25-215l94 9c-15 67-21 113-38 199 156-16 272-22 272 162 0 118-18 273-57 357-47 102-155 87-262 68l-13-85c90 20 165 53 208-29 34-65 47-195 47-302-2-137-97-105-211-99-36 142-104 365-208 531L83-5c101-135 174-358 208-490zm402-132l73-34c62 80 148 260 181 352l-77 38c-30-102-108-275-177-356" id="bi"/><use transform="matrix(0.018,0,0,0.018,0,0)" xlink:href="#bi" id="D"/><path fill="#333" d="M838-681v-65H627v-52h277v169H709c6 39-20 74 39 74h119c24 0 29-6 32-53 13 9 37 17 55 21-7 67-26 85-79 85H741c-74 0-95-15-95-75v-104h192zm-322 0v-65H302v-52h277v169H382c6 38-21 74 37 74h108c24 0 29-6 32-50 13 10 37 18 55 21-7 65-26 82-77 82H413c-74 0-93-15-93-75v-104h196zm16 321v95h164v-95H532zm416 95v58H283v-58h180v-95H315v-57h148v-72h69v72h164v-72h71v72h150v57H767v95h181zM933-74l-72 32c-42-37-114-84-183-119l53-33c73 35 155 83 202 120zM496-196l66 23c-51 48-131 97-197 129-12-13-39-37-55-47 68-27 142-65 186-105zM264-647l-62 42c-26-50-90-121-148-170l57-38c59 47 125 116 153 166zm-23 202v321C288-49 377-15 494-10c113 5 346 2 468-6-9 16-21 49-24 70-113 5-329 7-442 3-132-5-223-41-285-120-42 44-87 86-135 130L37-2c42-31 91-73 135-115v-258H49v-70h192" id="bj"/><use transform="matrix(0.018,0,0,0.018,0,0)" xlink:href="#bj" id="E"/><path fill="#333" d="M413-330l-143 36v280c0 44-11 65-39 77-27 11-71 13-148 13-2-19-12-50-22-68 53 2 102 1 117 0 14-1 21-5 21-21v-263L56-240l-19-73c46-9 101-22 162-36v-216H50v-69h149v-202h71v202h136v69H270v199l136-32zm433-380H529v260h317v-260zm73 331H726C766-202 844-52 974 14c-17 14-40 44-52 64C778-4 696-171 653-379H528c-6 151-35 333-153 455-12-14-41-41-57-50 126-130 138-319 138-467v-339h463v401" id="bk"/><use transform="matrix(0.018,0,0,0.018,0,0)" xlink:href="#bk" id="F"/><use transform="matrix(0.018,0,0,0.018,0,0)" xlink:href="#bi" id="G"/><path fill="#333" d="M206-312l81 7C229-156 250-38 466-41c131 0 190-12 260-27l-1 83c-62 11-129 23-260 23-184 0-286-74-286-198 0-43 11-98 27-152zm625-369l15 79c-61 16-126 31-187 41 36 79 90 194 133 277l-46 48c-43-9-141-23-205-29l8-65c38 3 107 11 140 14-28-61-78-164-108-233-128 15-270 15-421 2l-3-80c144 19 279 18 393 6-23-50-50-114-75-156l89-17c24 66 42 110 64 163 68-12 135-28 203-50" id="bl"/><use transform="matrix(0.018,0,0,0.018,0,0)" xlink:href="#bl" id="H"/><path fill="#333" d="M344-382c-5 144-6 278 6 415h-87c7-121 2-215 7-351-48 73-113 168-161 234l-50-69c55-69 169-223 219-301 2-32 4-64 6-95-45 5-131 17-193 25l-8-83c75 2 123-6 206-17 5-90 9-96 1-167l95 3c-5 24-13 80-20 149l5-2 29 35c-12 18-29 45-44 69-2 18-3 37-5 56 77-71 204-166 303-166 93 0 140 52 140 133 0 99-37 270-37 370 0 34 16 60 51 60 50 0 103-32 149-82l13 86C917-27 855 3 787 3c-65 0-110-44-110-126 0-110 37-273 37-369 0-57-29-81-79-81-80 0-200 93-291 191" id="bm"/><use transform="matrix(0.018,0,0,0.018,0,0)" xlink:href="#bm" id="I"/><path fill="#333" d="M89-664c160-7 562-56 789-62v80c-56 0-143 1-194 16-141 45-226 195-226 312 0 194 180 255 341 261l-29 83C587 19 378-79 378-300c0-155 93-280 184-334-87 10-357 36-464 58" id="bn"/><use transform="matrix(0.018,0,0,0.018,0,0)" xlink:href="#bn" id="J"/><path fill="#333" d="M226-696c-26 179-4 611 133 605 51 0 97-102 123-202l63 72C486-53 425 4 357 4c-93 0-183-93-210-350-16-135-4-244-17-352zm516 27c89 115 160 318 174 485l-81 32c-17-178-77-374-171-490" id="bo"/><use transform="matrix(0.018,0,0,0.018,0,0)" xlink:href="#bo" id="K"/><path fill="#333" d="M368-110c-5 72 127 88 210 71-9-78-56-132-131-132-45 0-79 27-79 61zM241-735c111 6 360 0 462-17l46 58c-91 57-203 166-313 256 45-15 90-21 134-21 165 0 284 100 284 234C854-65 721 39 512 39c-135 0-218-60-218-142 0-68 61-130 153-130 124 0 191 83 204 175 78-30 123-87 123-168 0-97-98-168-223-168-163 0-253 69-379 197l-58-59c184-153 327-270 494-416-91 5-285 10-365 20" id="bp"/><use transform="matrix(0.018,0,0,0.018,0,0)" xlink:href="#bp" id="L"/><path fill="#333" d="M817-672v-79H497v79h320zm0 132v-80H497v80h320zm69-267v323H429v-323h457zM344-316l16 66C259-199 150-146 66-106l-29-73c38-16 85-36 136-59v-313H56v-70h117v-208h69v208h108v70H242v281zm613-49H546c-13 24-27 48-43 70h430s-1 20-3 30C915-59 899 19 871 48c-36 36-80 24-155 24 0-18-7-45-17-60 37 3 70 4 85 4 14 0 23-1 30-11 17-18 32-81 45-238h-78C741-114 663 15 577 80c-12-15-35-32-53-43 81-54 154-162 195-270h-97C569-130 471-21 379 37c-11-16-31-34-49-46 83-45 171-135 225-224H454c-40 45-85 84-130 114-10-12-36-36-51-46 79-47 151-118 198-200H331v-63h626v63" id="bq"/><use transform="matrix(0.018,0,0,0.018,0,0)" xlink:href="#bq" id="M"/><path fill="#333" d="M730-254H271v223h459v-223zM198 77v-398h608V77h-76V36H271v41h-73zm52-589h501v66H250v-66zm206-322h75c106 147 282 286 439 357-18 17-36 43-49 64-155-81-330-221-423-349-82 122-244 264-415 355-9-17-29-43-46-59 174-88 341-240 419-368" id="br"/><use transform="matrix(0.018,0,0,0.018,0,0)" xlink:href="#br" id="N"/><path fill="#333" d="M118-282c1-189 42-355 52-486l88 7c-40 158-84 407-57 601 16-45 39-104 56-144l42 33c-32 107-83 190-72 297l-71 6c-20-71-38-180-38-314zM567-47c98 0 113-55 107-140-77-34-232-16-226 63 0 49 48 77 119 77zm378-58l-43 65c-49-46-98-85-149-113 3 98-31 177-172 180-133 0-206-55-206-143 0-83 74-151 204-151 33 0 64 3 92 9-3-76-9-171-10-253-90 4-172 1-261-4v-76c85 10 171 11 261 7-1-63 4-127-5-183h91c-9 59-6 101-9 178 60-4 118-12 171-23v78c-54 9-112 15-171 19 1 99 8 198 12 281 80 32 143 83 195 129" id="bs"/><use transform="matrix(0.018,0,0,0.018,0,0)" xlink:href="#bs" id="O"/><use transform="matrix(0.018,0,0,0.018,0,0)" xlink:href="#bo" id="P"/><use transform="matrix(0.018,0,0,0.018,0,0)" xlink:href="#bo" id="Q"/><use transform="matrix(0.018,0,0,0.018,0,0)" xlink:href="#bo" id="R"/><path fill="#333" d="M314-786c108 23 297 46 391 52l-11 74c-99-9-272-31-393-53zm262 318c-121 10-286 21-385 34l-7-88c110 9 318-13 446-24 17-2 38-7 47-11l48 54c-70 54-172 155-239 220 114-13 123 100 146 185 25 90 202 42 272 32l-5 85c-42 7-133 14-186 14-79 0-129-18-151-84-22-55-24-167-93-168-27 0-50 14-73 36-37 36-144 148-200 219l-77-52c80-70 321-318 457-452" id="bt"/><use transform="matrix(0.018,0,0,0.018,0,0)" xlink:href="#bt" id="S"/><path fill="#fff" d="M800-704l61 39c-7 14-11 31-15 50-22 105-70 266-149 369C606-129 487-36 303 22l-68-75c194-49 306-134 390-241 71-91 118-230 131-326-202 1-414-3-611 3v-88c190 13 403 3 602 6 15 0 34 0 53-5" id="bu"/><use transform="matrix(0.018,0,0,0.018,0,0)" xlink:href="#bu" id="T"/><path fill="#fff" d="M538-72c102-2 215 5 309-5V7C622 2 381 3 155 7v-84c94 10 201 3 302 5v-368c-87 1-170-3-253 3v-80c170 9 353 1 529 4 25 0 50-2 71-4v80c-84-6-177-2-266-3v368" id="bv"/><use transform="matrix(0.018,0,0,0.018,0,0)" xlink:href="#bv" id="U"/><path fill="#fff" d="M85-376c303-75 547-218 710-405l66 60c-69 70-165 152-268 217 3 176-6 370 6 535h-98c12-146 3-328 6-485-107 59-245 117-376 156" id="bw"/><use transform="matrix(0.018,0,0,0.018,0,0)" xlink:href="#bw" id="V"/><path fill="#fff" d="M749-708l51 39c-6 8-19 30-25 44-34 86-97 203-168 293 105 90 227 220 292 298l-70 61c-67-88-173-206-275-297C447-155 312-45 164 22l-64-67c262-111 480-315 578-575-161 2-340-5-491 5v-91c148 14 328 4 487 7 33 0 59-4 75-9" id="bx"/><use transform="matrix(0.018,0,0,0.018,0,0)" xlink:href="#bx" id="W"/><path fill="#fff" d="M638 45C545-81 359-263 229-356l65-52c37 27 119 93 187 154 147-110 262-257 312-347-228 3-472-7-690 6v-90c28 4 67 8 102 8h596c28 0 50-3 64-8l64 51c-10 11-19 22-25 31-72 117-199 280-364 406 60 60 131 135 171 184" id="by"/><use transform="matrix(0.018,0,0,0.018,0,0)" xlink:href="#by" id="X"/><path fill="#fff" d="M805-665l67 40c-8 14-18 37-24 53-27 100-88 236-177 344C580-117 461-25 273 44l-72-65c183-54 308-145 399-251 78-92 139-221 159-312H421c-60 84-144 173-253 246l-69-52c173-103 271-248 314-338 11-17 25-53 31-79l93 31c-30 46-43 79-69 120h272c27 0 49-3 65-9" id="bz"/><use transform="matrix(0.018,0,0,0.018,0,0)" xlink:href="#bz" id="Y"/><path fill="#fff" d="M545-726v65H71v-65h200v-107h71v107h203zM422-461l-60-15c19-46 44-120 56-170l70 17c-21 58-45 124-66 168zm-182-18l-64 15c-5-44-23-111-44-162l62-13c23 49 41 117 46 160zm191 248H181v184h250v-184zM112 77v-374h391V71h-72V18H181v59h-69zM45-384v-68h514v68H45zm860-397l54 35c-41 94-92 209-139 300 100 92 125 171 126 242 6 127-71 165-201 154-1-21-8-53-21-74 52 3 88 7 122-9 21-13 27-43 27-79 0-63-28-137-129-224 41-84 85-192 116-272H671V76h-72v-854h294" id="bA"/><use transform="matrix(0.018,0,0,0.018,0,0)" xlink:href="#bA" id="Z"/><path fill="#fff" d="M326-816l78 22C332-626 216-477 90-383c-13-16-45-44-63-58 126-84 237-222 299-375zM189-461h621s-1 26-2 36C794-118 779-3 745 35c-51 54-123 33-234 33-2-22-11-52-25-74 65 6 127 7 150 7 21 0 33-2 42-13 26-25 40-125 52-377H472C446-192 382-11 128 81c-10-19-31-49-48-65 235-78 290-237 313-405H189v-72zm412-329l70-28c65 134 193 284 301 360-19 16-47 45-61 66-110-89-236-250-310-398" id="bB"/><use transform="matrix(0.018,0,0,0.018,0,0)" xlink:href="#bB" id="aa"/><path fill="#fff" d="M220-70h558v-233H220v233zm558-533H220v227h558v-227zm-306-74h383V72h-77V4H220v73h-73v-754h244c22-51 43-116 55-163l92 17c-19 49-43 102-66 146" id="bC"/><use transform="matrix(0.018,0,0,0.018,0,0)" xlink:href="#bC" id="ab"/><path fill="#fff" d="M581-705H329c-29 39-62 78-99 115h275c27-33 54-76 76-115zm218 364v-181H545v181h254zM234-522v181h237v-181H234zM365-4h391c96 0 111-27 123-148 20 13 51 23 74 28C936 22 905 65 758 65H370C209 65 160 37 160-82v-443c-21 19-44 36-67 53-11-17-36-41-54-52 136-93 236-216 289-316l82 16c-11 18-23 36-35 55h247l14-5 50 32c-25 50-59 105-94 152h282v361h-75v-45H234v193c0 62 21 77 131 77" id="bD"/><use transform="matrix(0.018,0,0,0.018,0,0)" xlink:href="#bD" id="ac"/><path fill="#fff" d="M128-290c1-190 41-336 51-467l90 7c-43 152-83 388-59 582 17-45 39-103 55-142l43 32c-32 110-83 193-72 301l-72 5c-20-70-36-184-36-318zm295 13l72 7c-9 36-13 64-13 91 0 45 30 89 166 89 89 0 165-8 245-26l1 84c-61 12-144 20-247 20-227-2-270-93-224-265zm34-315l-1-82c108 18 308 14 407 0v82c-106 11-298 11-406 0" id="bE"/><use transform="matrix(0.018,0,0,0.018,0,0)" xlink:href="#bE" id="ad"/><path fill="#fff" d="M418-639h349c-68-41-133-89-178-138-40 47-102 95-171 138zm-12 56v-49c-42 25-87 48-132 67-8-16-24-42-37-57 126-47 252-132 316-215h66c85 92 216 170 334 210-14 15-30 42-39 60-45-17-93-41-140-68v52H624v68h257v58H624v151c-2 86-64 68-166 72-4-18-14-42-23-58 48 2 92 2 105 1s17-5 17-16v-150H315v-58h242v-68H406zm299 183l52-32c54 43 120 104 155 143l-54 37c-32-40-99-104-153-148zm-292-30l58 26c-41 59-102 119-163 160-11-13-30-31-45-40 59-38 117-96 150-146zM123-206l-51-42c42-52 102-138 150-216l43 41c-42 72-96 154-142 217zm171-528l-43 52c-30-30-91-73-140-101l42-46c50 26 111 66 141 95zm-66 159l-43 53c-29-29-91-69-141-97l41-47c49 24 111 63 143 91zm307 470v92h416v62H50v-62h413v-92H155v-60h308v-54h72v54h327v60H535" id="bF"/><use transform="matrix(0.018,0,0,0.018,0,0)" xlink:href="#bF" id="ae"/><path fill="#fff" d="M77-522c154-32 319-127 532-127 164 0 295 95 295 261 0 238-236 353-542 370l-35-83c259-7 489-85 489-288 0-104-75-185-209-185-163 0-415 109-493 140" id="bG"/><use transform="matrix(0.018,0,0,0.018,0,0)" xlink:href="#bG" id="af"/><path fill="#fff" d="M765-665c26 37 62 98 82 139l-54 24c-19-41-54-101-81-140zm110-40c28 37 66 100 85 137l-54 24c-22-43-54-100-83-138zM532-492l-51-48c26-16 54-37 68-49-43-35-135-84-211-115l47-59c76 32 185 86 244 130l19 52c-24 20-80 63-116 89zm-128 23c86 92 238 239 230 351C621 70 440 36 302 17l-12-84c51 15 98 23 160 23 46 0 100-18 100-82 0-107-127-224-207-291zM935-69l-74 40c-28-94-98-235-166-313l67-36c68 80 142 221 173 309zM325-222C267-162 168-78 72-21L24-88c82-44 197-132 253-194" id="bH"/><use transform="matrix(0.018,0,0,0.018,0,0)" xlink:href="#bH" id="ag"/><path fill="#fff" d="M154-605v155H83v-221h153c-19-37-54-88-84-125l62-28c37 41 78 98 96 136l-34 17h204c-12-42-43-102-73-146l64-24c34 47 68 111 81 153l-43 17h177c38-46 82-112 107-159l77 26c-31 45-68 93-102 133h155v221h-72v-155H154zm787 329v69H538v195c0 44-12 66-48 77s-93 12-184 12c-5-21-20-52-31-71 76 2 144 2 163 1 21-1 26-6 26-21v-193H64v-69h400v-72h38c49-24 100-56 141-88H230v-66h488l15-4 48 36c-62 64-155 127-243 169v25h403" id="bI"/><use transform="matrix(0.018,0,0,0.018,0,0)" xlink:href="#bI" id="ah"/><path fill="#fff" d="M522-435l-27-57c72-23 177-60 281-97l11 55c-92 35-189 71-265 99zm196-190l-41 49c-26-31-84-71-132-95l39-45c47 23 105 61 134 91zM386-458v-267H76v-61h379v329c-4 83-62 66-161 69-3-17-12-39-19-55 44 1 84 1 96 0 12 0 15-4 15-15zM118-672l39-44c47 25 104 64 131 94l-40 48c-26-31-82-72-130-98zm202 102l11 55c-88 37-178 75-250 103l-29-61c68-21 169-58 268-97zm426 391v-97H261v97h485zM261-19h485v-101H261v101zm200-409l77 15c-14 27-29 55-43 79h326V79h-75V40H261v39h-73v-413h234c15-31 30-67 39-94zm439-358v329c-4 87-65 69-169 73-3-18-12-42-21-59 47 2 90 2 104 1 12-1 16-4 16-15v-268H518v-61h382" id="bJ"/><use transform="matrix(0.018,0,0,0.018,0,0)" xlink:href="#bJ" id="ai"/><path fill="#fff" d="M314-721l-43 59c-37-36-114-83-177-112l40-54c63 27 142 71 180 107zm-49 260l-42 62c-39-34-117-79-182-106l41-56c63 25 143 67 183 100zm-17 153l56 46C255-156 189-31 134 62L71 15c50-78 123-209 177-323zm226 131h317v-95H479c0 31-1 61-5 95zm317-158v-59h73V75h-73v-188H462C444-42 408 29 337 86c-13-13-41-32-58-42 114-89 129-218 129-309v-129h71v59h312zm-39-332H505c39 45 83 80 132 108 47-30 86-66 115-108zm196 0H834c-32 56-77 102-130 141 77 33 164 55 262 73-16 16-33 43-41 66-108-24-204-53-289-97-89 49-195 82-306 105-6-16-24-47-37-63 101-17 197-43 278-81-54-37-103-84-145-144H323v-65h273v-104h75v104h277v65" id="bK"/><use transform="matrix(0.018,0,0,0.018,0,0)" xlink:href="#bK" id="aj"/><path fill="#fff" d="M266-158c33-47 72-135 106-212-142 12-223 97-223 181 4 75 78 86 117 31zm489-200c7-54 12-102 9-165l82 9c-4 71-10 134-21 192 47 26 87 53 119 76l-36 84c-30-26-65-53-103-78C764-111 688-17 544 55L478 0c157-66 227-172 259-280-83-45-179-80-282-89-38 87-87 203-125 258-35 50-74 69-125 69-73 0-129-53-129-136 0-146 135-258 329-263 36-78 72-163 103-225-75 6-206 7-278 18l-4-84c104 6 265 4 347-17l51 41c-55 61-82 154-138 271 99 10 190 41 269 79" id="bL"/><use transform="matrix(0.018,0,0,0.018,0,0)" xlink:href="#bL" id="ak"/><path fill="#fff" d="M907-343c-136-7-280-1-420-3v201c0 50 35 80 127 80 95 0 177-4 263-14l-5 84c-78 6-174 10-270 10-151 0-198-53-198-135v-226c-98 1-195-3-289 4v-84c91 8 191 4 289 5v-212c-73 1-156-2-223 3v-80c206 7 440 6 648 0v80c-105-6-231-2-342-3v212c141-2 285 4 420-4v82" id="bM"/><use transform="matrix(0.018,0,0,0.018,0,0)" xlink:href="#bM" id="al"/><path fill="#fff" d="M867-675l-54 24c-20-41-54-101-81-138l53-23c25 36 61 96 82 137zm-134 27c-171-5-358-5-530 0v-83c136 12 292 3 437 6 28 0 64-2 93-6v83zM85-479c239 9 495 2 741 4 21 0 54-1 78-4v82c-113-4-234-1-350-2-3 241-88 364-256 456L224 2c154-62 251-193 247-401-128 1-262-2-386 2v-82zm757-351l53-22c26 36 65 99 84 136l-54 24c-22-44-54-100-83-138" id="bN"/><use transform="matrix(0.018,0,0,0.018,0,0)" xlink:href="#bN" id="am"/><path fill="#fff" d="M141 24L66-26c84-60 144-149 174-246 29-92 30-291 30-402 0-30-3-52-7-73h92c-10 135-2 368-36 497-30 107-94 205-178 274zm436-1l-53-44c4-16 7-36 7-56v-599c0-38-5-66-6-74h92c-9 207-2 437-4 651 92-42 215-133 291-246l48 68C866-160 727-58 611 0c-15 8-24 15-34 23" id="bO"/><use transform="matrix(0.018,0,0,0.018,0,0)" xlink:href="#bO" id="an"/><path fill="#fff" d="M279-839l70 22c-28 70-64 141-103 208V81h-71v-583c-35 49-73 93-110 130-7-17-28-55-42-72 101-95 198-244 256-395zm141 490h177c2-48 1-98 1-148H420v148zm435-148H671c0 50 1 100-1 148h185v-148zm71 211H666c-8 69-26 134-66 192C700-39 826-5 968 12c-16 16-34 45-44 67C783 58 658 19 556-42 506 7 434 49 330 80c-8-16-29-47-45-61C383-6 450-41 496-82c-59-45-108-99-145-163l62-20c30 52 73 96 126 133 32-47 47-99 54-154H351v-274h247v-98H322v-68h276v-107h73v107h288v68H671v98h255v274" id="bP"/><use transform="matrix(0.018,0,0,0.018,0,0)" xlink:href="#bP" id="ao"/><path fill="#fff" d="M542-299h269v-166H542v166zm-317 0h243v-166H229c0 59 1 108-4 166zm243-396H229v160h239v-160zm343 160v-160H542v160h269zm73-231v742c0 48-13 70-45 83-34 12-92 13-186 12-3-20-15-52-25-72 70 3 138 2 156 2 20-1 27-7 27-26v-203H542V67h-74v-295H218C203-117 169-3 93 82 82 67 52 42 36 33 146-91 156-267 156-406v-360h728" id="bQ"/><use transform="matrix(0.018,0,0,0.018,0,0)" xlink:href="#bQ" id="ap"/><path fill="#fff" d="M342-776c-19 157-18 390-22 593 0 109 70 147 162 147 182 0 285-102 356-205l55 69C826-78 698 46 480 46c-142 0-240-60-240-221-4-205 23-449 1-602" id="bR"/><use transform="matrix(0.018,0,0,0.018,0,0)" xlink:href="#bR" id="aq"/><path fill="#fff" d="M89-664c160-7 562-56 789-62v80c-56 0-143 1-194 16-141 45-226 195-226 312 0 194 180 255 341 261l-29 83C587 19 378-79 378-300c0-155 93-280 184-334-87 10-357 36-464 58" id="bS"/><path fill="#fff" d="M341-2l-68 58C209-24 123-109 52-167l65-57C189-166 279-75 341-2" id="bT"/><g id="ar"><use transform="matrix(0.018,0,0,0.018,0,0)" xlink:href="#bS"/><use transform="matrix(0.018,0,0,0.018,17.1,0)" xlink:href="#bT"/></g><path fill="#fff" d="M293-132l68 26C293-43 190 20 105 60 92 46 65 20 48 10c88-35 184-88 245-142zm653-28l-55 44c-15-16-35-35-59-54-99 3-200 6-298 8V75h-72v-235c-147 4-283 6-388 8l-6-63c65 0 145-1 233-2 14-9 29-17 43-27-50-37-125-81-187-112l48-42c20 10 42 21 65 32 36-27 77-64 110-97H65v-59h397v-64H173v-57h289v-64H118v-57h344v-74h73v74h358v57H535v64h300v57H535v64h403v59H478c-49 44-106 92-156 126 31 18 60 37 83 54 78-54 157-114 211-164l66 37c-78 64-179 135-270 191 110-2 229-4 346-6-35-25-72-48-106-68l51-39c86 47 191 118 243 172zM633-93l55-39c83 36 191 97 246 143l-58 44C824 10 719-53 633-93" id="bU"/><use transform="matrix(0.018,0,0,0.018,0,0)" xlink:href="#bU" id="as"/><use transform="matrix(0.018,0,0,0.018,0,0)" xlink:href="#aT" id="at"/><path fill="#fff" d="M891-471l59 28c-53 87-118 182-179 243l-60-38c37-40 81-98 117-156H544v377c0 46-12 67-47 78s-93 12-180 12c-5-21-18-51-28-72 69 3 136 2 156 1 18-1 24-5 24-20v-376H57v-71h518c-85-43-199-95-288-133l38-55c55 22 120 49 181 76 63-36 136-88 190-137H151v-69h617l17-4 54 41c-71 71-170 147-260 203 41 18 80 37 108 52l-17 26h206" id="bV"/><use transform="matrix(0.018,0,0,0.018,0,0)" xlink:href="#bV" id="au"/><path fill="#fff" d="M378-542v123h158v-123H378zm0 185v125h158v-125H378zm0-369v122h158v-122H378zm-64-66h289v625H314v-625zm176 674l56-31c41 47 91 113 114 153l-59 37C579-1 530-69 490-118zm-135-28l69 18C390-51 333 29 280 79c-12-11-42-31-58-41C275-8 326-78 355-146zm497-690h67v819c0 46-11 67-39 79s-75 14-157 14c-3-19-12-51-22-70 59 2 112 1 127 0 17 0 24-5 24-22v-820zM678-734h66v568h-66v-568zM84-773l43-53c56 26 124 68 158 101l-44 59c-32-33-101-79-157-107zM41-506l42-54c58 23 129 61 164 92l-42 61c-34-31-105-73-164-99zM62 24c40-77 97-205 138-317l59 39C222-150 172-28 129 64" id="bW"/><use transform="matrix(0.018,0,0,0.018,0,0)" xlink:href="#bW" id="av"/><path fill="#fff" d="M94-270l64 12C144-164 120-68 87-4c-12-9-42-23-58-28 33-61 54-150 65-238zm217 14l56-18c29 61 58 140 67 192l-59 20c-9-52-37-132-64-194zm-25-237l55-24c42 64 85 149 99 203l-59 28c-4-17-10-36-19-58l-86 6V78h-68v-412c-60 3-115 6-163 8l-6-67c20 0 43-1 66-2 22-26 45-57 67-89-30-45-84-102-131-144l38-48c10 8 20 17 30 26 33-56 68-131 89-186l66 25c-34 67-76 147-114 201 24 24 45 48 61 69 41-63 79-128 107-182l64 28c-58 94-137 212-207 297 50-2 105-4 160-7-15-30-32-61-49-88zm549 258H547v193h288v-193zM478 75v-377h429V72h-72V25H547v50h-69zm479-703H720v150h215v67H446v-67h199v-150H415v-68h230v-141h75v141h237v68" id="bX"/><use transform="matrix(0.018,0,0,0.018,0,0)" xlink:href="#bX" id="aw"/><path fill="#fff" d="M237-458h225v-103H237v103zm0-266v102h225v-102H237zm529 102v-102H539v102h227zm0 164v-103H539v103h227zm170 217H601c92 92 235 176 361 218-17 15-40 44-51 62-127-51-274-148-372-254V77h-77v-287C366-101 220-6 90 43 80 26 56-3 40-18c130-42 272-128 360-223H65v-69h397v-84H162v-395h683v395H539v84h397v69" id="bY"/><use transform="matrix(0.018,0,0,0.018,0,0)" xlink:href="#bY" id="ax"/><path fill="#fff" d="M818-45v-460H668v460h150zM179-505v460h142v-460H179zm421 110v-110H389v110h211zM389-161v116h211v-116H389zm211-61v-112H389v112h211zm341-477H531c-12 42-26 87-39 125h401V77h-75V24H179v53h-72v-651h309c11-38 21-84 29-125H62v-71h879v71" id="bZ"/><use transform="matrix(0.018,0,0,0.018,0,0)" xlink:href="#bZ" id="ay"/><use transform="matrix(0.018,0,0,0.018,0,0)" xlink:href="#aK" id="az"/><path fill="#fff" d="M278-834l70 21c-29 72-63 143-102 208V74h-71v-570c-34 48-71 91-107 128-8-16-29-55-42-72 99-95 195-243 252-394zm173 111v183h371v-183H451zm500 441H714C780-177 881-76 977-24c-16 13-40 40-53 59-90-58-186-162-253-271V77h-74v-310C527-123 427-23 330 33c-13-18-35-45-52-59 103-51 209-150 276-256H307v-68h290v-124H381v-316h515v316H671v124h280v68" id="ca"/><use transform="matrix(0.018,0,0,0.018,0,0)" xlink:href="#ca" id="aA"/><path fill="#fff" d="M935-635H396c-35 81-79 158-131 229V74h-74v-392c-35 38-74 72-116 102-8-19-27-52-40-68 121-86 213-214 277-351H66v-72h277c17-43 31-87 43-130l78 20c-11 37-24 74-38 110h509v72zm19 368v70H689v186c0 43-9 64-42 76-33 10-88 11-173 11-4-21-14-50-24-70 67 2 125 1 143 1 18-1 22-5 22-19v-185H336v-70h279v-92h29c41-26 84-62 119-97H421v-67h407l15-5 48 36c-53 62-131 128-202 174v51h265" id="cb"/><use transform="matrix(0.018,0,0,0.018,0,0)" xlink:href="#cb" id="aB"/><g id="aC"><use transform="matrix(0.018,0,0,0.018,0,0)" xlink:href="#aE"/><use transform="matrix(0.018,0,0,0.018,13.104,0)" xlink:href="#aF"/><use transform="matrix(0.018,0,0,0.018,24.012000000000004,0)" xlink:href="#aG"/><use transform="matrix(0.018,0,0,0.018,40.68,0)" xlink:href="#aH"/></g><path fill="#fff" d="M922-781v67H83v-67h839zM219-289h279c6-36 10-75 12-118H226c-1 37-3 77-7 118zm577-292H226v115h570v-115zm132 357H603C658-90 776-16 963 11c-17 15-37 46-46 66C731 43 614-36 548-180 504-53 412 31 205 79c-7-18-25-47-40-61 202-43 283-120 318-242H210C193-124 159-21 96 60 83 47 51 26 33 18c107-133 119-321 119-457v-202h716v234H586c-2 42-6 81-12 118h354v65" id="cc"/><use transform="matrix(0.018,0,0,0.018,0,0)" xlink:href="#cc" id="aD"/></defs></g></svg>