<svg xmlns="http://www.w3.org/2000/svg" xmlns:xlink="http://www.w3.org/1999/xlink" xmlns:lucid="lucid" width="1235.57" height="1020"><g transform="translate(-191.3173805251049 -60)" lucid:page-tab-id="0_0"><path d="M211.32 688a8 8 0 0 1 8-8h1044a8 8 0 0 1 8 8v364a8 8 0 0 1-8 8h-1044a8 8 0 0 1-8-8z" stroke="#000" fill="#fff"/><path d="M1015.72 934.06h23.75v17.63h-23.75v-17.64zM1106.2 735.8h94.38v230.45h-94.38V735.8z" fill="#4397ff"/><path d="M901.5 774.64h249.78v159.68H901.5V774.64z" fill="#4397ff"/><path d="M912.92 784.34h227.84v142.82H912.92V784.34z" fill="#fff" fill-opacity=".98"/><path d="M911.42 952.97h227.54l-11.12 38.07H900l11.42-38.07z" fill="#4397ff"/><path d="M909.92 951.7h232.95l19.53 39.6H929.46l-19.54-39.6z" fill="#4397ff"/><path d="M988.97 981.07h82.96V989h-82.96v-7.93zM943.28 957.82h6.32v5.1h-6.32v-5.1zM954.1 958.08h6.32v5.1h-6.32v-5.1zM968.23 967.28h6v5.1h-6v-5.1zM965.83 957.57h6.3v5.1h-6.3v-5.1zM976.35 957.82h6.3v5.1h-6.3v-5.1zM986.87 957.57h6v5.1h-6v-5.1zM1050.9 958.33h6.3v5.1h-6.3v-5.1zM1060.5 958.33h6.02v5.1h-6v-5.1zM1069.23 958.33h6.3v5.1h-6.3v-5.1zM1079.75 958.33h6.3v5.1h-6.3v-5.1zM1089.66 958.33h6.02v5.1h-6.02v-5.1zM1077.94 966.76h6.3v5.1h-6.3v-5.1zM1100.8 958.33h6.3v5.1h-6.3v-5.1zM979.65 967.02h6.32v5.1h-6.32v-5.1zM991.68 967.02h6v5.1h-6v-5.1zM1068.32 966.5h5.4v5.12h-5.4v-5.1zM1057.8 966.5h6v5.12h-6v-5.1zM998.3 957.82h6v5.1h-6v-5.1zM1009.7 958.08h6.32v5.1h-6.3v-5.1zM1020.53 957.82h6.3v5.1h-6.3v-5.1zM1032.55 957.82h6.02v5.1h-6.02v-5.1zM1042.17 958.08h6.32v5.1h-6.33v-5.1zM1002.2 966.76h6v5.1h-6v-5.1zM1013.62 966.76h6.3v5.1h-6.3v-5.1zM1024.74 967.02h6v5.1h-6v-5.1zM1035.26 967.02h6.3v5.1h-6.3v-5.1zM1046.38 966.5h6v5.12h-6v-5.1z" fill="#fff"/><path d="M900.3 991.04l262.1-.77-18.63-38.58-232.05.25-11.42 39.1z" fill="none"/><path d="M1172.92 747.8h16.84c1.8 0 1.8 0 1.8 1.8s0 1.8-1.8 1.8h-16.84c-1.8 0-1.8 0-1.8-1.8s0-1.8 1.8-1.8zM1172.92 756.24h17.14c1.5 0 1.5 0 1.5 1.53 0 1.54 0 1.54-1.5 1.54h-17.14c-1.8 0-1.8 0-1.8-1.53s0-1.53 1.8-1.53zM1106.5 772.08h45.38v2.04h-45.38v-2.04zM1151.88 772.08h2.1v162.75h-2.1V772.08z" fill="#fff"/><path d="M1106.2 934.57h47.5v2.3h-47.5v-2.3zM1106.5 947.6h36.37c1.8 0 1.8 0 1.8 1.8 0 2.04 0 2.04-1.8 2.04h-36.37c-1.8 0-1.8 0-1.8-2.05 0-1.8 0-1.8 1.8-1.8z" fill="#fff"/><path d="M1144.37 948.1l10.22 17.64-3.02 1.8-9.92-17.9 2.7-1.53zM1014.52 934.06h25.55v2.56h-25.55v-2.56zM1015.42 948.88h24.35v2.8h-24.35v-2.8z" fill="#fff"/><use xlink:href="#a" transform="matrix(1,0,0,1,869.9999999999999,991.2916963518973) translate(161.37555555555542 33.51111111111136)"/><path d="M719.22 740h34.6c32.9 0 59.37 5.53 59.37 12.56v226.17c0 7.03-26.5 12.56-59.4 12.56h-34.58c-32.74 0-59.22-5.54-59.22-12.57V752.56c0-7.03 26.48-12.56 59.22-12.56z" fill="#4397ff"/><path d="M670.7 760.1H802.5v205.3H670.7V760.1zM714.48 748.54h42.7c1.07 0 2 .76 2 1.5 0 .77-.93 1.52-2 1.52h-42.7c-1.07 0-2-.75-2-1.5 0-.76.93-1.52 2-1.52zM720 979.23c0 1.76-1.23 3.02-2.92 3.02-1.53 0-2.9-1.26-2.9-3.02 0-1.5 1.37-3.02 2.9-3.02 1.7 0 2.9 1.52 2.9 3.03zM741.1 979.23c0 1.76-1.22 3.02-2.9 3.02-1.53 0-2.75-1.26-2.75-3.02 0-1.5 1.22-3.02 2.75-3.02 1.68 0 2.9 1.52 2.9 3.03zM761.16 979.23c0 1.76-1.38 3.02-2.9 3.02-1.7 0-2.92-1.26-2.92-3.02 0-1.5 1.22-3.02 2.9-3.02 1.54 0 2.92 1.52 2.92 3.03z" fill="#fff"/><path d="M674.4 763.62h124.25v198.02H674.4V763.62z" fill="gray"/><use xlink:href="#b" transform="matrix(1,0,0,1,630,991.2916963518973) translate(5.888888888888118 33.51111111111136)"/><use xlink:href="#c" transform="matrix(1,0,0,1,630,991.2916963518973) translate(34.777777777777224 33.51111111111136)"/><use xlink:href="#d" transform="matrix(1,0,0,1,630,991.2916963518973) translate(63.66666666666633 33.51111111111136)"/><use xlink:href="#e" transform="matrix(1,0,0,1,630,991.2916963518973) translate(92.55555555555543 33.51111111111136)"/><use xlink:href="#f" transform="matrix(1,0,0,1,630,991.2916963518973) translate(121.44444444444454 33.51111111111136)"/><use xlink:href="#g" transform="matrix(1,0,0,1,630,991.2916963518973) translate(150.33333333333366 33.51111111111136)"/><use xlink:href="#h" transform="matrix(1,0,0,1,630,991.2916963518973) translate(179.22222222222277 33.51111111111136)"/><path d="M869.64 239.14c16.32 7.5 26.88 24.83 26.88 44.66 0 22.72-14.08 42.16-33.6 47.17l-6.4 1.54H625.16c-26.88 0-48.64-24.44-48.64-53.9 0-29.45 21.76-53.9 48.64-53.9 2.24 0 3.52 0 5.76.58 8-14.24 21.76-22.33 37.12-22.33 4.16 0 8 .58 12.16 1.92v-1.92c0-35.04 25.28-62.95 56.96-62.95 21.76 0 41.92 14.63 51.2 36.58 8-5.2 17.28-8.1 26.88-8.1 30.4 0 55.04 27.35 55.04 60.84.32 3.08 0 6.16-.64 9.82z" stroke="#000" stroke-opacity="0" fill="#00188f"/><path d="M1300 200h100.1v171.6H1300V200z" fill="#29aae1"/><path d="M1338.2 319.14h50.9c1.6 0 1.6 0 1.6 1.72 0 1.54 0 1.54-1.6 1.54h-50.9c-1.7 0-1.7 0-1.7-1.54 0-1.72 0-1.72 1.7-1.72zM1338.3 327.9h50.7c2.2 0 2.2 0 2.2 2.2v.53c0 2.23 0 2.23-2.2 2.23h-50.7c-2.3 0-2.3 0-2.3-2.23v-.52c0-2.2 0-2.2 2.3-2.2zM1338.5 338.7h50.8c2.2 0 2.2 0 2.2 2.2v.53c0 2.23 0 2.23-2.2 2.23h-50.8c-2.2 0-2.2 0-2.2-2.23v-.52c0-2.2 0-2.2 2.2-2.2zM1384.8 283.3c0 4.47-3.6 8.07-8.2 8.07s-8.3-3.6-8.3-8.06c0-4.44 3.7-8.04 8.3-8.04 4.6 0 8.2 3.6 8.2 8.05z" fill="#fff"/><path d="M1381.5 283.3c0 2.76-2.2 5-5 5s-5.1-2.24-5.1-5c0-2.73 2.3-4.96 5.1-4.96s5 2.23 5 4.97z" fill="#54bbe7"/><use xlink:href="#i" transform="matrix(1,0,0,1,1270,371.42857142857144) translate(22.222222222221788 33.633333333333425)"/><use xlink:href="#j" transform="matrix(1,0,0,1,1270,371.42857142857144) translate(51.111111111110894 33.633333333333425)"/><use xlink:href="#k" transform="matrix(1,0,0,1,1270,371.42857142857144) translate(80 33.633333333333425)"/><use xlink:href="#l" transform="matrix(1,0,0,1,1270,371.42857142857144) translate(108.8888888888891 33.633333333333425)"/><path d="M326.8 801.2h236.65c3.2 0 3.2 0 3.2 3.22V966.6c0 3.23 0 3.23-3.2 3.23H326.8c-3.2 0-3.2 0-3.2-3.23V804.42c0-3.23 0-3.23 3.2-3.23z" fill="#999"/><path d="M305.25 801.36h13.1v168.3h-13.1v-168.3z" fill="#29aae1"/><path d="M310.5 885.34c0 46.4-2.34 83.8-5.25 83.8-2.92 0-5.25-37.4-5.25-83.8s2.33-83.8 5.25-83.8c2.9 0 5.24 37.4 5.24 83.8zM569.86 800.17h15.45v168.8h-15.44v-168.8z" fill="#29aae1"/><path d="M591.43 884.5c0 46.74-2.62 84.48-6.12 84.48s-6.4-37.74-6.4-84.5c0-46.57 2.9-84.48 6.4-84.48 3.5 0 6.13 37.9 6.13 84.5z" fill="#29aae1"/><path d="M582.98 815.3c0 1.53-1.46 2.9-3.5 2.9-1.75 0-3.5-1.37-3.5-2.9 0-1.53 1.75-2.9 3.5-2.9 2.04 0 3.5 1.37 3.5 2.9zM582.98 825.33c0 1.53-1.46 2.9-3.5 2.9-1.75 0-3.5-1.37-3.5-2.9 0-1.53 1.75-2.9 3.5-2.9 2.04 0 3.5 1.37 3.5 2.9zM583.85 835.36c0 1.7-1.75 2.9-3.5 2.9-2.04 0-3.5-1.2-3.5-2.9 0-1.53 1.46-2.9 3.5-2.9 1.75 0 3.5 1.37 3.5 2.9z" fill="#fff"/><path d="M354.2 816.66h87.43v37.4H354.2v-37.4z" fill="#29aae1"/><path d="M452.13 816.66h87.42v37.4h-87.42v-37.4z" fill="#fff"/><path d="M452.42 863.24h87.43v37.4h-87.43v-37.4z" fill="#29aae1"/><path d="M452.13 911.18h87.42v37.4h-87.42v-37.4zM353.62 911.18h87.43v37.4h-87.43v-37.4zM357.7 863.58h31.2c3.48 0 3.48 0 3.48 3.4v30.43c0 3.4 0 3.4-3.5 3.4H357.7c-3.2 0-3.2 0-3.2-3.4V867c0-3.4 0-3.4 3.2-3.4zM406.37 863.07h30.9c3.5 0 3.5 0 3.5 3.4v31.1c0 3.24 0 3.24-3.5 3.24h-30.9c-3.5 0-3.5 0-3.5-3.22v-31.1c0-3.4 0-3.4 3.5-3.4z" fill="#fff"/><path d="M432.6 948.07l135.8-60.86c9.04-3.9 9.04-3.9 11.95 3.07 2.92 6.97 2.92 6.97-6.12 11.05l-135.5 60.86c-9.04 3.9-9.04 3.9-11.96-3.06-2.9-6.97-2.9-6.97 5.83-11.05z" fill="#fff"/><path d="M432.02 950.1l136.4-61.7c6.7-3.06 6.7-3.06 10.48 2.2 3.5 5.28 3.5 5.28-3.5 8.34l-136.1 61.54c-7 3.23-7 3.23-10.5-2.04s-3.5-5.27 3.22-8.33z" fill="#29aae1"/><path d="M562 891.46l-8.17 3.9c4.67-2.2 4.67-2.2 7 2.73l.87 2.2c2.33 4.76 2.33 4.76-2.33 7.14l8.16-4.08c-4.66 2.2-4.66 2.2-7-2.55l-.87-2.2c-2.33-4.93-2.33-4.93 2.33-7.14z" fill="#fff"/><path d="M565.5 889.08l-8.46 4.08c4.95-2.2 4.95-2.2 7 2.55l1.16 2.22c2.33 4.93 2.33 4.93-2.62 7.14l8.45-3.9c-4.66 2.2-4.66 2.2-7-2.73l-1.16-2.2c-2.04-4.77-2.04-4.77 2.62-7.15zM374.3 960.3H430c.3 0 .3 0 .3.35v1.2c0 .33 0 .33-.3.33H374.3c-.28 0-.28 0-.28-.34v-1.2c0-.33 0-.33.3-.33z" fill="#fff"/><path d="M335.85 953.5l38.17 6.8c.3 0 .3 0 .3.35L374 962c0 .18 0 .18-.3.18l-38.17-6.8c-.3 0-.3 0-.3-.34l.3-1.36c0-.17 0-.17.3-.17z" fill="#fff"/><use xlink:href="#m" transform="matrix(1,0,0,1,270,970) translate(74.88888888888812 33.633333333333425)"/><use xlink:href="#n" transform="matrix(1,0,0,1,270,970) translate(103.77777777777723 33.633333333333425)"/><use xlink:href="#o" transform="matrix(1,0,0,1,270,970) translate(132.66666666666634 33.633333333333425)"/><use xlink:href="#p" transform="matrix(1,0,0,1,270,970) translate(161.55555555555543 33.633333333333425)"/><use xlink:href="#q" transform="matrix(1,0,0,1,270,970) translate(190.44444444444454 33.633333333333425)"/><use xlink:href="#r" transform="matrix(1,0,0,1,270,970) translate(219.33333333333366 33.633333333333425)"/><use xlink:href="#s" transform="matrix(1,0,0,1,270,970) translate(248.22222222222277 33.633333333333425)"/><path d="M741.32 617.5V335M741.32 617.44V620" stroke="#000" stroke-width="5" fill="none"/><path d="M743.82 335.07h-5v-2.56h5z" stroke="#000" stroke-width=".05"/><path d="M899.02 283.8h398.48" stroke="#000" stroke-width="5" fill="none"/><path d="M899.08 286.3h-2.7l.14-2.5v-1.12l-.12-1.38h2.68zM1300 286.3h-2.56v-5h2.56z" stroke="#000" stroke-width=".05"/><path d="M621.32 88a8 8 0 0 1 8-8h224a8 8 0 0 1 8 8v44a8 8 0 0 1-8 8h-224a8 8 0 0 1-8-8z" stroke="#000" stroke-opacity="0" stroke-width="7" fill="#fff" fill-opacity="0"/><g><use xlink:href="#t" transform="matrix(1,0,0,1,626.3173805251049,85) translate(6.111111111110375 39.21388888888914)"/><use xlink:href="#u" transform="matrix(1,0,0,1,626.3173805251049,85) translate(37.2222222222217 39.21388888888914)"/><use xlink:href="#v" transform="matrix(1,0,0,1,626.3173805251049,85) translate(68.33333333333303 39.21388888888914)"/><use xlink:href="#w" transform="matrix(1,0,0,1,626.3173805251049,85) translate(99.44444444444436 39.21388888888914)"/><use xlink:href="#x" transform="matrix(1,0,0,1,626.3173805251049,85) translate(130.55555555555569 39.21388888888914)"/><use xlink:href="#y" transform="matrix(1,0,0,1,626.3173805251049,85) translate(161.666666666667 39.21388888888914)"/><use xlink:href="#z" transform="matrix(1,0,0,1,626.3173805251049,85) translate(192.7777777777783 39.21388888888914)"/></g><path d="M616.52 628a8 8 0 0 1 8-8h224a8 8 0 0 1 8 8v44a8 8 0 0 1-8 8h-224a8 8 0 0 1-8-8z" stroke="#000" stroke-opacity="0" fill="#fff" fill-opacity="0"/><g><use xlink:href="#A" transform="matrix(1,0,0,1,621.5173805319345,625) translate(57.222222222221795 36.636111111111354)"/><use xlink:href="#B" transform="matrix(1,0,0,1,621.5173805319345,625) translate(86.1111111111109 36.636111111111354)"/><use xlink:href="#C" transform="matrix(1,0,0,1,621.5173805319345,625) translate(115 36.636111111111354)"/><use xlink:href="#D" transform="matrix(1,0,0,1,621.5173805319345,625) translate(143.8888888888891 36.636111111111354)"/></g><defs><path fill="#333" d="M91 0v-740h243c164 0 290 57 290 232 0 169-127 245-286 245h-99V0H91zm148-380h89c102 0 151-43 151-128 0-86-54-115-156-115h-84v243" id="E"/><path fill="#333" d="M393 14C206 14 54-120 54-367c0-244 157-387 344-387 94 0 169 45 217 95l-78 94c-37-36-80-62-136-62-112 0-196 96-196 255 0 161 76 258 193 258 63 0 113-30 153-73l78 92C568-24 489 14 393 14" id="F"/><g id="a"><use transform="matrix(0.028888888888889106,0,0,0.028888888888889106,0,0)" xlink:href="#E"/><use transform="matrix(0.028888888888889106,0,0,0.028888888888889106,19.268888888889034,0)" xlink:href="#F"/></g><path fill="#333" d="M834-678c-61 105-103 221-192 337 99 86 220 214 279 286L807 44c-65-90-158-192-252-283C449-127 316-23 179 42L76-66c256-107 465-291 559-532-149 2-321-6-457 7v-142c147 14 313 4 470 7 44 0 84-6 104-13" id="G"/><use transform="matrix(0.028888888888889106,0,0,0.028888888888889106,0,0)" xlink:href="#G" id="b"/><path fill="#333" d="M616 65C514-67 346-241 205-343l106-85c40 30 106 84 169 139 113-90 207-206 254-288-212 3-444-8-644 7v-140c26 4 81 9 115 9h555c38 0 72-4 93-11l100 82c-14 16-27 29-34 42-72 117-200 277-341 391 57 57 116 122 155 169" id="H"/><use transform="matrix(0.028888888888889106,0,0,0.028888888888889106,0,0)" xlink:href="#H" id="c"/><path fill="#333" d="M92-306v-157c219 12 469 3 698 6 46 0 91-4 117-6v157c-257-9-556-7-815 0" id="I"/><use transform="matrix(0.028888888888889106,0,0,0.028888888888889106,0,0)" xlink:href="#I" id="d"/><path fill="#333" d="M869-368l-57 138c-103-54-253-112-361-149 2 148-6 283 9 422H304c21-222 5-476 10-713 0-36-3-86-10-121h156c-12 78-9 178-9 268 134 39 326 110 418 155" id="J"/><use transform="matrix(0.028888888888889106,0,0,0.028888888888889106,0,0)" xlink:href="#J" id="e"/><path fill="#333" d="M791-729l98 63c-44 137-68 291-172 434C626-112 493-13 315 44L206-76c198-46 311-133 392-234 66-83 104-197 117-282-192 2-400-4-585 4v-141c181 16 389 4 582 8 20 0 52-1 79-8" id="K"/><use transform="matrix(0.028888888888889106,0,0,0.028888888888889106,0,0)" xlink:href="#K" id="f"/><path fill="#333" d="M554-478c-1-54-3-94-10-144h129c-5 44-4 96-3 144 65 0 143 2 199-6v121c-65-3-130-2-196-2 3 119 6 255 7 357 1 52-39 88-97 88-48 0-110-2-155-5l-8-114c41 6 89 9 115 9 19 0 26-11 26-31 0-49-1-122-2-198C489-170 354-58 236 4L149-96c141-65 280-176 350-269-104 1-210-3-308 4v-123c112 12 242 4 363 6" id="L"/><use transform="matrix(0.028888888888889106,0,0,0.028888888888889106,0,0)" xlink:href="#L" id="g"/><path fill="#333" d="M241-760c70 47 200 151 258 211L397-444c-52-56-177-165-250-216zM116-94c364-44 627-279 747-520l78 141C803-238 538-22 200 38" id="M"/><use transform="matrix(0.028888888888889106,0,0,0.028888888888889106,0,0)" xlink:href="#M" id="h"/><path fill="#333" d="M748-598c57 0 148 2 184-7v133c-31-4-132-3-184-3 4 271-50 426-301 538L340-38c204-68 286-170 278-437H381c0 72-1 182 4 241H245c9-56 5-169 6-241-55 0-156-1-193 4v-136c31 8 137 10 193 9 0-58 1-146-6-189h142c-8 41-6 132-6 189h237c0-60 2-153-6-198h142c-7 45-6 138-6 198" id="N"/><use transform="matrix(0.028888888888889106,0,0,0.028888888888889106,0,0)" xlink:href="#N" id="i"/><use transform="matrix(0.028888888888889106,0,0,0.028888888888889106,0,0)" xlink:href="#I" id="j"/><path fill="#333" d="M780-798c25 37 60 100 79 137l-80 35c-21-41-51-101-78-139zm118-45c26 38 63 101 81 136l-80 35c-20-42-53-100-80-138zM36-33c135-179 219-394 251-658l146 30C384-429 305-144 176 26zm754 54c-54-242-149-494-249-682l133-43C775-508 871-264 938-27" id="O"/><use transform="matrix(0.028888888888889106,0,0,0.028888888888889106,0,0)" xlink:href="#O" id="k"/><use transform="matrix(0.028888888888889106,0,0,0.028888888888889106,0,0)" xlink:href="#I" id="l"/><path fill="#333" d="M899-638c-55 113-81 218-171 345 37 23 71 46 96 64l-91 117c-24-21-56-45-93-71C551-86 433 4 271 66L155-35c177-54 290-139 373-224-68-44-136-85-187-114l85-95c53 27 121 65 188 105 49-71 89-153 104-213H431c-70 93-163 189-264 258L59-401c176-108 269-245 319-332 15-24 36-70 45-105l145 45c-25 36-50 82-63 103 97-4 212 9 292-11" id="P"/><use transform="matrix(0.028888888888889106,0,0,0.028888888888889106,0,0)" xlink:href="#P" id="m"/><path fill="#333" d="M836-711l-37 16 63 41c-45 137-67 290-172 433C600-101 467-2 288 55L179-64c199-47 311-133 392-235 66-83 104-196 118-282-192 2-401-4-585 4v-141c196 16 423 6 629 6-17-33-37-68-56-97l82-34c26 38 59 96 77 132zm-20-123l83-34c25 36 61 97 80 132l-83 36c-22-41-53-98-80-134" id="Q"/><use transform="matrix(0.028888888888889106,0,0,0.028888888888889106,0,0)" xlink:href="#Q" id="n"/><path fill="#333" d="M289 42l-94-82c12-25 13-42 13-65v-542c0-38-5-85-11-113h157c-6 38-10 74-10 113v519c163-46 386-174 514-330l71 113C792-181 584-62 349 15c-14 5-36 12-60 27" id="R"/><use transform="matrix(0.028888888888889106,0,0,0.028888888888889106,0,0)" xlink:href="#R" id="o"/><path fill="#333" d="M505-595c19 43 68 173 82 219l-120 42c-12-49-56-170-81-222zm228 28l141 45c-43 134-71 254-160 366C621-36 496 48 379 92L274-15c110-29 249-105 332-209 68-85 116-218 127-343zm-460 25c25 51 73 172 93 228l-122 46c-17-54-67-187-91-231" id="S"/><use transform="matrix(0.028888888888889106,0,0,0.028888888888889106,0,0)" xlink:href="#S" id="p"/><use transform="matrix(0.028888888888889106,0,0,0.028888888888889106,0,0)" xlink:href="#J" id="q"/><path fill="#333" d="M933-799v255H410v-255h109v153h90v-198h114v198h97v-153h113zM363-657v106H47v-106h108v-176h107v176h101zM181-229l-93 17c1-80-12-202-30-296l88-17c21 95 34 216 35 296zm113 34l84-19 12 105C273-78 149-48 52-24L26-141c57-9 132-25 212-42l-36-9c20-90 41-235 48-339l108 22c-18 104-42 228-64 314zM842-17v-203h-55V-7c19 1 38 1 44 1 9 0 11-3 11-11zm122-369H728l-27 67h246v303c9 88-52 107-134 104-4-27-14-62-26-89v76h-90v-295h-54V75h-90v-295h-51V84H396v-403h185c4-21 9-44 13-67H375v-105h589v105" id="T"/><use transform="matrix(0.028888888888889106,0,0,0.028888888888889106,0,0)" xlink:href="#T" id="r"/><path fill="#333" d="M896-328H628c86 107 219 206 347 261-30 25-69 74-90 106-116-62-232-165-322-280V87H436v-320C347-119 231-18 115 45 95 14 56-35 27-60c130-57 263-160 351-268H110v-117h326v-131H65v-119h371v-152h127v152h379v119H563v131h333v117" id="U"/><use transform="matrix(0.028888888888889106,0,0,0.028888888888889106,0,0)" xlink:href="#U" id="s"/><path d="M62-401c315-73 553-211 716-407l107 97c-76 76-166 151-265 215v409c0 44 2 106 9 131H471c13-135 4-311 7-459-103 52-228 104-344 136" id="V"/><use transform="matrix(0.03111111111111133,0,0,0.03111111111111133,0,0)" xlink:href="#V" id="t"/><path d="M241-760c70 47 200 151 258 211L397-444c-52-56-177-165-250-216zM116-94c364-44 627-279 747-520l78 141C803-238 538-22 200 38" id="W"/><use transform="matrix(0.03111111111111133,0,0,0.03111111111111133,0,0)" xlink:href="#W" id="u"/><path d="M899-638c-55 113-81 218-171 345 37 23 71 46 96 64l-91 117c-24-21-56-45-93-71C551-86 433 4 271 66L155-35c177-54 290-139 373-224-68-44-136-85-187-114l85-95c53 27 121 65 188 105 49-71 89-153 104-213H431c-70 93-163 189-264 258L59-401c176-108 269-245 319-332 15-24 36-70 45-105l145 45c-25 36-50 82-63 103 97-4 212 9 292-11" id="X"/><use transform="matrix(0.03111111111111133,0,0,0.03111111111111133,0,0)" xlink:href="#X" id="v"/><path d="M92-306v-157c219 12 469 3 698 6 46 0 91-4 117-6v157c-257-9-556-7-815 0" id="Y"/><use transform="matrix(0.03111111111111133,0,0,0.03111111111111133,0,0)" xlink:href="#Y" id="w"/><path d="M856-602c-95 100-161 183-287 279 1 138-6 265 6 380H431c12-85 7-202 8-299-92 49-199 90-307 123L55-237c193-43 322-112 408-167 77-50 139-108 168-150-164 2-335-5-492 5v-131c98 12 196 5 301 7 0-49 1-103-6-144h143c-6 40-7 96-6 144 69-2 148 6 203-10zM632-268l83-96c92 50 144 79 240 145l-84 110c-87-69-152-111-239-159" id="Z"/><use transform="matrix(0.03111111111111133,0,0,0.03111111111111133,0,0)" xlink:href="#Z" id="x"/><path d="M505-595c19 43 68 173 82 219l-120 42c-12-49-56-170-81-222zm228 28l141 45c-43 134-71 254-160 366C621-36 496 48 379 92L274-15c110-29 249-105 332-209 68-85 116-218 127-343zm-460 25c25 51 73 172 93 228l-122 46c-17-54-67-187-91-231" id="aa"/><use transform="matrix(0.03111111111111133,0,0,0.03111111111111133,0,0)" xlink:href="#aa" id="y"/><path d="M869-368l-57 138c-103-54-253-112-361-149 2 148-6 283 9 422H304c21-222 5-476 10-713 0-36-3-86-10-121h156c-12 78-9 178-9 268 134 39 326 110 418 155" id="ab"/><use transform="matrix(0.03111111111111133,0,0,0.03111111111111133,0,0)" xlink:href="#ab" id="z"/><path d="M988-733l-79 35c-21-42-53-100-80-138l79-33c26 38 63 101 80 136zm-119 46l-80 35c-21-41-52-100-79-139l80-33c25 37 60 100 79 137zm-139 61c-175-5-365-5-542 0v-129c133 16 289 5 434 8 34 0 74-3 108-8v129zM168-493h655c21 0 65-2 91-6v130c-106-6-222-2-332-3-17 234-94 353-265 449L200-8c139-56 241-178 243-364-124 1-253-4-371 4v-131c30 4 65 6 96 6" id="ac"/><use transform="matrix(0.028888888888889103,0,0,0.028888888888889103,0,0)" xlink:href="#ac" id="A"/><path d="M780-798c25 37 60 100 79 137l-80 35c-21-41-51-101-78-139zm118-45c26 38 63 101 81 136l-80 35c-20-42-53-100-80-138zM36-33c135-179 219-394 251-658l146 30C384-429 305-144 176 26zm754 54c-54-242-149-494-249-682l133-43C775-508 871-264 938-27" id="ad"/><use transform="matrix(0.028888888888889103,0,0,0.028888888888889103,0,0)" xlink:href="#ad" id="B"/><use transform="matrix(0.028888888888889103,0,0,0.028888888888889103,0,0)" xlink:href="#V" id="C"/><path d="M834-678c-61 105-103 221-192 337 99 86 220 214 279 286L807 44c-65-90-158-192-252-283C449-127 316-23 179 42L76-66c256-107 465-291 559-532-149 2-321-6-457 7v-142c147 14 313 4 470 7 44 0 84-6 104-13" id="ae"/><use transform="matrix(0.028888888888889103,0,0,0.028888888888889103,0,0)" xlink:href="#ae" id="D"/></defs></g></svg>